<?xml version="1.0" standalone="no"?>
<!DOCTYPE svg PUBLIC "-//W3C//DTD SVG 20010904//EN"
 "http://www.w3.org/TR/2001/REC-SVG-20010904/DTD/svg10.dtd">
<svg version="1.0" xmlns="http://www.w3.org/2000/svg"
 width="1024.000000pt" height="1536.000000pt" viewBox="0 0 1024.000000 1536.000000"
 preserveAspectRatio="xMidYMid meet">

<g transform="translate(0.000000,1536.000000) scale(0.100000,-0.100000)"
fill="#000000" stroke="none">
<path d="M7206 13839 c-57 -14 -194 -80 -267 -130 -162 -110 -324 -334 -398
-550 l-18 -54 -7 70 c-28 273 -167 451 -378 487 -111 19 -114 8 -26 -75 176
-166 253 -336 246 -547 l-3 -88 -90 110 c-246 298 -542 485 -888 560 -144 31
-386 31 -502 -1 -148 -40 -299 -127 -348 -199 -20 -29 -47 -115 -47 -147 0
-15 23 0 60 39 84 88 221 136 386 136 78 0 214 -19 214 -31 0 -3 -26 -9 -57
-12 -166 -18 -352 -120 -522 -286 -45 -44 -85 -81 -88 -81 -3 0 -66 51 -141
113 -76 62 -158 127 -184 145 -66 45 -201 108 -273 127 -91 24 -275 30 -361
12 -92 -20 -212 -68 -272 -109 -95 -64 -199 -178 -164 -178 4 0 39 16 77 35
132 66 278 71 489 16 158 -42 171 -50 73 -51 -166 0 -390 -73 -537 -173 -178
-122 -284 -316 -340 -620 -5 -28 -22 -104 -36 -167 l-26 -115 -75 -74 c-125
-121 -294 -217 -465 -262 -112 -30 -303 -32 -396 -5 -156 46 -257 155 -269
288 -3 32 -9 58 -13 58 -12 0 -47 -81 -59 -138 -26 -122 -8 -232 61 -372 33
-68 58 -102 127 -170 49 -49 108 -96 138 -111 l53 -27 -54 -41 c-84 -65 -231
-222 -286 -306 -50 -78 -92 -187 -105 -278 -7 -47 8 -132 26 -142 4 -3 49 37
101 88 97 97 197 170 292 212 l56 25 -59 -70 c-95 -113 -166 -225 -281 -442
-41 -78 -47 -85 -55 -66 -6 13 -24 26 -44 31 -126 32 -208 153 -267 392 -14
61 -28 112 -30 114 -7 8 -31 -22 -39 -48 -5 -16 -4 -21 4 -17 6 4 11 2 11 -4
0 -7 -6 -10 -14 -7 -8 3 -26 -12 -46 -39 -17 -24 -49 -58 -70 -76 -22 -17 -37
-34 -35 -39 3 -4 0 -11 -6 -15 -8 -5 -9 -3 -4 6 6 10 4 11 -11 5 -108 -46
-208 -77 -274 -86 -69 -8 -90 -7 -162 12 l-83 21 -24 -29 c-13 -15 -41 -47
-62 -70 -46 -50 -48 -57 -12 -48 33 8 29 4 -16 -18 -27 -13 -31 -14 -21 -2 24
28 -6 15 -36 -16 -16 -17 -48 -42 -72 -56 -23 -14 -40 -28 -37 -33 3 -4 -1 -7
-8 -6 -6 0 -42 -12 -79 -28 -44 -19 -68 -35 -72 -49 -3 -11 -5 -101 -5 -201 0
-130 3 -183 12 -188 9 -6 8 -8 -3 -8 -13 0 -13 -1 0 -10 10 -6 11 -10 3 -10
-7 0 -13 -11 -13 -25 l0 -25 49 35 c112 81 253 121 386 109 157 -13 271 -63
384 -169 38 -35 72 -60 81 -58 12 4 12 3 2 -5 -11 -8 -9 -17 10 -48 77 -121
97 -281 51 -401 -4 -11 -2 -14 5 -9 7 4 12 2 12 -4 0 -7 -7 -10 -15 -6 -9 3
-19 -3 -25 -14 -10 -19 -6 -24 13 -21 5 1 6 -3 2 -9 -5 -8 -11 -8 -19 -1 -16
14 -36 -5 -29 -28 4 -12 2 -13 -4 -3 -8 10 -21 7 -63 -15 -48 -25 -65 -28
-145 -28 -79 0 -96 3 -142 27 l-52 28 -33 -63 c-40 -76 -197 -238 -286 -295
-35 -23 -90 -51 -123 -64 l-59 -23 0 -1607 0 -1607 33 -18 c24 -13 57 -17 127
-18 91 0 100 2 171 37 41 20 109 67 152 103 l77 66 0 -33 c0 -59 37 -213 63
-264 51 -101 152 -164 236 -149 195 35 341 310 341 644 l0 84 31 -43 c18 -24
64 -76 104 -116 166 -166 410 -226 489 -121 61 82 66 208 17 391 -18 66 -38
134 -46 153 l-14 32 50 -38 c93 -75 173 -112 288 -135 l53 -11 48 -135 c55
-156 101 -259 190 -420 78 -142 252 -434 374 -628 50 -81 107 -174 126 -207
l35 -60 6 -175 c4 -96 10 -267 14 -380 l8 -206 -104 -38 c-140 -52 -292 -138
-420 -237 -40 -31 -388 -195 -754 -356 -742 -324 -917 -406 -1200 -561 -191
-104 -262 -156 -382 -280 l-113 -115 0 -76 0 -76 37 45 c20 25 93 101 162 170
135 134 211 186 456 311 122 62 670 316 752 348 29 11 74 31 100 45 26 14 136
65 243 114 181 83 451 211 493 234 10 5 -4 -19 -31 -54 -162 -206 -222 -382
-222 -645 0 -350 125 -642 380 -887 282 -270 738 -471 1225 -540 702 -100
1495 6 2337 313 241 88 552 242 761 378 224 145 556 418 712 585 209 225 397
544 413 704 l7 63 90 -65 c262 -190 696 -450 1155 -694 212 -113 582 -322 705
-400 108 -68 247 -167 373 -267 l92 -73 0 2634 c0 2098 -3 2635 -12 2639 -10
4 -10 6 0 6 9 1 12 129 12 606 0 333 -3 605 -8 605 -34 0 -143 -145 -127 -169
10 -16 -31 -4 -123 38 -122 55 -190 73 -280 74 -114 1 -195 -42 -239 -127 -22
-42 -35 -149 -24 -198 6 -24 8 -45 5 -47 -2 -3 -17 2 -33 12 -61 36 -182 67
-260 66 -109 0 -160 -22 -189 -79 -30 -58 -24 -116 23 -218 41 -88 127 -178
223 -232 34 -19 62 -38 62 -41 0 -3 -25 -6 -55 -7 -31 -1 -95 -15 -148 -32
-93 -31 -202 -93 -192 -110 3 -5 0 -12 -6 -16 -8 -4 -9 -3 -5 4 4 7 3 12 -2
12 -14 0 -53 -60 -47 -70 4 -6 1 -9 -7 -8 -8 2 -29 -30 -52 -77 -35 -70 -40
-90 -44 -167 -4 -72 -7 -88 -21 -89 -24 -3 -115 2 -119 5 -1 2 13 39 32 82 40
92 86 236 112 349 15 64 19 120 19 275 0 188 -1 198 -28 275 -44 124 -105 208
-179 246 l-38 20 48 72 c95 141 261 459 309 592 31 84 62 149 70 142 3 -3 9
-51 13 -107 4 -56 10 -104 14 -107 3 -3 11 -2 18 1 53 27 67 44 108 123 42 80
51 90 105 122 250 144 423 546 385 889 -24 218 -137 473 -273 614 -43 44 -62
75 -86 140 -127 332 -419 611 -763 731 -26 9 -22 50 8 78 81 76 178 245 209
364 19 75 19 241 0 322 -32 136 -118 283 -238 406 -80 81 -214 185 -268 207
-19 8 -88 47 -154 89 -177 110 -316 169 -539 228 -91 25 -118 28 -271 28 -197
0 -262 -12 -444 -81 -63 -24 -116 -42 -118 -40 -9 9 117 109 176 140 207 108
419 155 701 156 317 0 613 -69 776 -181 29 -19 51 -28 62 -24 52 20 -195 157
-359 199 -303 78 -668 80 -939 5 -147 -41 -362 -160 -435 -240 -64 -71 -47
-36 27 57 172 213 350 342 578 418 104 34 235 56 338 56 39 0 52 4 52 15 0 22
-43 28 -149 22 -345 -22 -688 -230 -905 -551 -31 -47 -33 -36 -11 87 35 200
137 443 241 577 102 130 282 249 457 301 98 29 75 63 -27 38z m-1816 -277
c336 -86 606 -272 846 -584 66 -86 214 -318 214 -335 0 -4 -23 27 -51 68 -28
41 -54 76 -58 79 -7 6 -91 118 -141 190 -19 27 -41 52 -47 54 -17 7 -45 -37
-49 -77 -1 -17 -3 -32 -4 -32 -6 0 -6 -55 0 -82 10 -42 -5 -42 -26 0 -52 100
-212 284 -320 368 -29 22 -51 46 -47 52 3 6 1 7 -6 3 -6 -4 -23 1 -39 12 -15
10 -58 35 -97 55 -345 178 -753 217 -948 90 -67 -42 -52 -17 20 36 80 58 191
105 300 126 121 23 309 13 453 -23z m857 6 c88 -41 173 -172 199 -305 15 -80
18 -373 4 -428 -9 -36 -9 -33 -14 115 -4 134 -23 228 -68 343 -37 92 -132 242
-181 283 -29 25 -30 26 -7 20 14 -5 44 -17 67 -28z m-2367 -188 c100 -28 207
-87 305 -166 44 -36 114 -92 156 -124 42 -33 83 -65 90 -73 43 -42 48 -40 153
60 217 205 385 283 605 283 60 0 134 -7 171 -16 73 -17 231 -92 275 -130 23
-20 24 -22 5 -10 -71 46 -138 58 -250 45 -182 -22 -286 -76 -475 -249 -34 -30
-80 -68 -102 -83 -59 -40 -244 -88 -358 -93 -49 -2 -146 -6 -215 -9 -69 -3
-182 -5 -251 -4 -258 2 -481 -71 -716 -237 l-61 -44 -7 65 c-5 41 -3 81 4 108
7 23 13 53 15 65 3 22 71 91 89 92 10 0 57 50 57 61 0 4 14 16 30 26 26 15 28
18 12 24 -33 12 -133 -12 -165 -40 -16 -14 -35 -24 -41 -23 -6 2 -8 0 -4 -3 4
-4 -8 -27 -27 -50 -51 -62 -78 -118 -120 -248 -21 -65 -42 -117 -47 -117 -6 0
-8 -7 -5 -14 4 -10 1 -13 -8 -10 -18 7 -35 -27 -39 -81 -2 -25 -10 -54 -18
-63 -20 -24 -39 -72 -29 -72 5 0 19 12 30 27 12 14 23 24 25 22 2 -2 -16 -26
-41 -53 -36 -40 -43 -45 -39 -25 3 13 12 65 21 114 81 460 233 640 623 737 75
19 116 22 295 22 171 0 205 3 191 13 -10 7 -26 13 -36 13 -10 0 -55 20 -101
44 -128 69 -323 116 -488 117 -53 0 -109 -3 -125 -6 -23 -5 -18 0 26 29 61 41
137 71 225 92 85 19 268 11 365 -16z m1886 -269 c32 -30 50 -51 39 -46 -11 4
-47 19 -80 32 -55 22 -53 23 15 7 21 -4 17 2 -25 41 -27 26 -41 41 -29 33 12
-7 48 -37 80 -67z m-113 12 c-7 -2 -19 -2 -25 0 -7 3 -2 5 12 5 14 0 19 -2 13
-5z m-78 -63 c112 -17 304 -86 340 -123 l30 -32 -30 26 c-67 57 -291 108 -419
95 -139 -13 -262 -55 -361 -121 -16 -11 -46 -28 -65 -39 -42 -23 -110 -86
-110 -102 0 -7 -7 -19 -15 -28 -31 -30 -81 -102 -93 -131 -13 -34 -22 -115
-13 -115 4 0 16 7 28 15 20 14 21 13 16 -5 -3 -12 0 -20 6 -20 7 0 9 5 6 10
-3 6 -2 10 3 10 8 0 18 22 27 60 6 28 27 48 46 43 19 -5 21 -3 16 16 -5 22 10
71 22 71 4 0 18 11 32 24 33 31 110 79 116 73 9 -10 -18 -47 -30 -41 -7 4 -9
4 -5 -1 4 -4 -8 -30 -27 -56 -53 -75 -82 -139 -100 -224 -16 -78 -15 -94 5
-195 13 -61 112 -244 163 -300 55 -60 117 -111 128 -104 6 4 3 14 -8 26 -18
20 -18 21 7 13 22 -6 23 -6 8 6 -9 8 -18 21 -20 29 -2 8 -9 21 -16 29 -17 18
-11 166 12 271 1 8 6 33 11 55 13 69 46 120 138 213 33 34 67 60 74 58 7 -3
13 -2 13 3 0 4 11 13 24 21 13 7 27 20 30 29 3 9 9 22 12 30 4 9 2 11 -5 7 -6
-4 -11 -1 -11 8 0 26 -31 18 -99 -23 -71 -44 -132 -100 -162 -148 -14 -22 -25
-30 -36 -26 -14 6 -14 7 3 14 10 4 14 8 8 8 -20 1 -25 31 -10 59 18 35 109
121 166 157 63 40 186 83 261 90 35 4 75 9 89 11 41 7 180 -16 260 -42 107
-35 268 -116 318 -159 23 -20 56 -57 73 -81 17 -24 34 -42 40 -39 16 10 10 68
-11 102 -16 27 -17 31 -3 26 11 -4 14 -2 9 5 -4 8 -2 10 7 6 8 -3 37 10 64 29
151 108 377 176 608 184 170 6 269 -12 452 -80 109 -41 243 -102 243 -111 0
-2 -24 3 -52 11 -29 8 -118 17 -198 20 -163 6 -292 -10 -414 -51 -71 -24 -108
-33 -178 -41 -131 -15 -200 -35 -234 -67 -18 -18 -20 -26 -12 -43 10 -18 10
-19 -6 -6 -25 21 -29 8 -6 -19 11 -12 17 -26 14 -31 -3 -5 2 -6 11 -3 8 4 21
2 28 -3 6 -5 35 -11 62 -12 28 -1 58 -4 68 -7 9 -3 17 -1 17 5 0 6 16 11 35
11 36 0 85 -18 85 -31 0 -4 11 -6 25 -4 14 1 43 -3 63 -10 20 -7 88 -16 150
-19 62 -4 146 -16 186 -26 100 -25 277 -106 383 -175 101 -66 238 -194 293
-275 76 -112 141 -269 171 -415 18 -88 16 -256 -5 -348 l-17 -77 -52 43 c-81
67 -217 148 -217 129 0 -5 35 -38 78 -75 109 -93 172 -161 230 -247 149 -224
182 -320 182 -528 1 -172 -45 -324 -145 -477 -54 -83 -140 -185 -156 -185 -5
0 6 25 26 56 49 77 74 144 91 249 24 150 17 282 -26 485 -26 128 -95 281 -154
343 -34 35 -61 52 -38 25 24 -31 34 -400 11 -422 -5 -6 -9 -1 -9 16 0 14 -4
38 -9 54 -6 16 -33 101 -60 189 -45 141 -55 165 -91 203 -23 24 -38 48 -34 54
4 7 3 8 -4 4 -8 -5 -12 0 -12 13 0 29 -30 27 -31 -1 0 -13 -9 6 -19 42 -38
139 -94 262 -179 390 -21 31 -41 73 -45 92 -3 18 -22 67 -41 108 -20 40 -33
80 -31 87 3 8 2 12 -3 8 -5 -3 -20 9 -33 27 -12 18 -32 41 -43 50 -20 17 -20
17 5 11 14 -3 36 -14 50 -23 14 -9 54 -30 90 -46 36 -15 91 -45 123 -66 60
-39 209 -160 241 -197 19 -21 46 -28 46 -12 0 26 -66 164 -107 224 -167 244
-430 406 -659 407 -40 0 -42 1 -49 37 -4 21 -17 64 -30 96 -62 151 -161 201
-326 166 -65 -14 -177 -63 -206 -91 -28 -26 -31 -54 -5 -43 9 5 53 21 96 37
142 52 291 35 343 -38 100 -141 83 -355 -45 -554 -136 -212 -271 -328 -419
-361 -46 -11 -57 -10 -108 11 -70 29 -115 23 -155 -20 -16 -17 -24 -30 -18
-28 16 6 48 -59 41 -80 -4 -13 -3 -14 5 -4 7 11 28 -6 88 -69 65 -68 221 -186
264 -201 18 -6 0 -38 -21 -38 -10 0 -19 -4 -19 -10 0 -5 4 -10 9 -10 4 0 8 -8
8 -17 0 -34 3 -43 14 -43 8 0 8 5 -1 15 -10 12 -10 15 4 15 14 0 21 17 17 42
0 4 6 5 14 2 11 -4 12 -11 5 -24 -5 -9 -6 -20 -3 -24 3 -3 0 -6 -8 -6 -18 -1
31 -29 51 -29 13 -1 13 0 0 10 -13 9 -13 10 0 6 9 -2 14 -14 12 -29 -2 -27 22
-56 32 -39 3 5 15 7 26 4 11 -3 20 0 20 6 0 6 -3 10 -7 10 -21 -3 -43 2 -43
10 0 5 15 5 36 1 36 -8 57 -20 36 -20 -7 0 -11 -6 -10 -12 2 -7 -3 -12 -10
-10 -8 1 -11 -2 -6 -9 4 -8 0 -9 -15 -4 -13 4 -21 2 -21 -5 0 -6 4 -9 10 -5 5
3 19 -4 31 -16 16 -16 18 -23 9 -29 -9 -6 -10 -12 -1 -26 8 -13 11 -15 10 -4
-4 45 37 81 56 50 3 -5 -1 -10 -9 -10 -9 0 -16 -4 -16 -9 0 -5 8 -7 18 -5 12
4 21 -4 29 -26 9 -23 9 -28 0 -23 -9 5 -9 3 -1 -8 16 -21 26 -51 14 -44 -6 3
-10 1 -10 -4 0 -6 -5 -10 -11 -9 -6 2 -14 -4 -16 -12 -3 -9 -1 -11 4 -5 10 13
36 13 45 1 3 -5 2 -20 -2 -32 -6 -14 -5 -26 0 -29 6 -4 10 -1 10 6 0 7 3 9 6
6 4 -4 -1 -18 -10 -32 -16 -24 -16 -27 0 -42 15 -15 15 -18 -2 -31 -18 -14
-18 -14 3 -9 13 3 25 1 28 -3 9 -14 -7 -41 -21 -36 -21 8 -44 -4 -43 -23 0
-10 2 -11 6 -3 7 17 23 15 23 -2 0 -8 -8 -17 -17 -19 -15 -4 -15 -6 4 -12 20
-6 20 -9 8 -22 -13 -13 -13 -16 0 -30 18 -17 12 -46 -14 -78 -15 -18 -15 -19
2 -6 15 12 17 11 17 -9 0 -15 -5 -20 -14 -17 -10 4 -13 1 -9 -9 3 -7 0 -14 -6
-14 -6 0 -11 -6 -11 -14 0 -8 -6 -17 -12 -19 -9 -4 -8 -6 3 -6 8 -1 21 5 28
12 11 10 11 8 1 -11 -8 -17 -18 -22 -32 -19 -16 5 -18 3 -9 -6 14 -14 15 -47
0 -47 -5 0 -7 5 -4 10 3 6 1 10 -5 10 -6 0 -13 -7 -16 -15 -4 -8 -11 -15 -16
-15 -7 0 -7 4 -1 13 6 6 9 20 8 29 -2 10 3 42 11 70 41 155 -11 379 -116 499
-49 56 -51 36 -6 -62 57 -125 77 -226 74 -375 -3 -116 -5 -129 -20 -126 -22 4
-24 -15 -2 -20 10 -2 5 -9 -18 -22 -18 -10 -27 -13 -20 -5 6 7 12 17 12 23 0
5 -9 -1 -19 -13 -12 -13 -17 -30 -14 -44 l6 -22 -22 22 c-25 27 -25 27 -5 48
13 12 13 16 3 14 -28 -6 -61 12 -54 29 3 9 2 13 -2 8 -4 -4 -8 -18 -8 -30 -1
-18 4 -22 22 -18 13 2 23 -1 23 -7 0 -6 -5 -11 -11 -11 -5 0 -7 -4 -4 -10 3
-6 -4 -10 -18 -10 -30 0 -40 -10 -26 -27 7 -8 8 -13 1 -13 -13 0 -23 26 -16
45 11 27 -4 16 -19 -14 -13 -26 -13 -29 1 -24 10 4 13 2 8 -6 -4 -7 -13 -10
-19 -8 -14 4 -57 -45 -50 -57 4 -5 12 -1 20 9 14 20 17 16 7 -9 -3 -9 -13 -16
-21 -16 -10 0 -13 -6 -9 -17 6 -17 5 -17 -8 0 -13 17 -17 16 -57 -22 l-44 -40
75 19 c76 20 107 20 48 1 -101 -32 -231 -50 -153 -21 15 6 58 41 96 79 136
136 195 334 155 521 -30 139 -97 264 -207 384 -31 34 -45 56 -37 58 7 3 -2 5
-19 6 -18 0 -33 -2 -33 -6 0 -4 12 -24 26 -45 22 -33 24 -41 12 -55 -12 -15
-11 -16 4 -4 14 12 19 7 42 -39 15 -28 24 -54 21 -57 -3 -3 -5 0 -5 7 0 8 -7
10 -21 6 -13 -5 -19 -3 -15 3 3 5 -3 12 -14 15 -24 6 -26 -2 -3 -18 26 -19 36
-116 14 -138 -10 -10 -11 -4 -6 26 5 24 3 42 -5 52 -7 8 -10 22 -6 30 3 10 2
14 -5 9 -6 -3 -9 -15 -6 -25 3 -10 1 -22 -4 -25 -5 -3 -9 0 -9 5 0 6 -8 11
-17 10 -11 0 -13 -3 -5 -6 6 -2 12 -13 12 -23 0 -17 -3 -16 -25 6 -13 13 -50
57 -81 97 -32 39 -73 89 -92 110 -37 43 -115 195 -106 209 3 5 1 14 -4 21 -25
32 -35 214 -16 308 19 94 37 141 93 248 41 76 49 86 74 86 15 1 27 -3 27 -7 0
-4 -7 -8 -16 -8 -8 0 -13 -4 -10 -8 3 -5 30 -10 62 -11 53 -2 58 0 93 36 35
37 84 155 93 223 2 14 7 30 11 37 4 6 3 23 -3 37 -15 40 -3 31 20 -14 11 -23
26 -74 33 -115 6 -41 14 -75 18 -75 12 0 31 48 32 81 0 19 -3 51 -7 72 -7 36
-6 38 13 32 13 -4 21 -2 21 5 0 6 -4 9 -9 6 -5 -3 -12 2 -15 11 -6 14 -9 14
-15 4 -6 -9 -16 1 -35 34 -22 38 -28 61 -31 123 -2 42 -3 83 -4 89 -1 7 -18
21 -38 32 -21 11 -32 20 -25 21 7 0 27 -7 43 -16 29 -14 31 -14 27 3 -2 10
-23 29 -48 43 -59 32 -201 40 -303 16 -77 -18 -214 -83 -303 -143 -62 -42
-144 -124 -144 -144 0 -12 0 -12 80 52 87 69 233 148 305 165 l30 7 -27 -22
c-15 -12 -32 -20 -37 -17 -12 8 -41 -4 -41 -16 0 -6 7 -5 15 2 9 7 18 11 20 8
3 -3 -29 -26 -70 -53 -64 -40 -113 -75 -160 -113 -46 -37 -75 -53 -84 -48 -7
4 -9 1 -5 -8 3 -9 11 -13 18 -10 12 6 -9 -13 -83 -73 -63 -52 -35 -52 51 0
132 79 316 150 432 166 61 9 166 5 166 -6 0 -2 -8 -12 -17 -21 -16 -16 -16
-16 -10 1 8 21 1 22 -18 3 -8 -7 -11 -16 -8 -20 7 -6 -17 -9 -52 -7 -17 1 -17
-1 5 -14 14 -9 17 -14 8 -11 -12 4 -18 0 -18 -10 0 -11 -6 -14 -16 -10 -8 3
-12 2 -9 -4 3 -5 -6 -12 -20 -16 -14 -3 -24 -9 -21 -12 3 -2 -14 -17 -37 -33
-53 -35 -187 -137 -247 -187 -25 -20 -106 -98 -180 -173 -107 -107 -148 -142
-195 -164 -72 -33 -131 -51 -165 -50 -14 0 -27 -3 -30 -7 -10 -13 -149 -17
-153 -5 -3 9 -8 9 -19 -1 -13 -10 -24 -10 -59 5 -24 9 -50 23 -57 30 -11 11
-9 13 12 13 14 0 26 -5 26 -11 0 -6 7 -9 15 -6 8 4 17 2 20 -4 4 -5 17 -7 30
-5 13 2 26 1 30 -2 13 -13 53 -8 48 5 -3 7 0 14 6 14 32 4 73 20 67 26 -3 4
-1 12 5 20 9 9 8 13 0 13 -6 0 -11 -5 -11 -10 0 -25 -225 27 -270 62 -20 16
-21 19 -6 16 10 -1 21 3 23 10 5 12 -14 16 -52 12 -17 -2 -18 0 -5 16 9 11 10
15 3 10 -7 -4 -21 -2 -30 3 -16 9 -15 10 6 11 14 0 32 -7 41 -15 9 -8 36 -17
61 -20 95 -11 124 -17 132 -24 10 -10 132 11 177 31 19 8 50 29 67 47 18 17
36 31 41 31 4 0 19 18 32 39 14 21 28 37 31 35 3 -2 6 9 7 25 1 33 -23 38 -53
10 -25 -23 -71 -41 -110 -45 -17 -1 -54 -12 -82 -23 -48 -19 -56 -19 -107 -6
-250 65 -397 178 -498 382 l-53 106 0 166 c1 155 3 172 29 251 88 264 238 438
471 546 111 51 238 65 390 44z m415 -200 c16 -23 17 -28 6 -24 -9 3 -16 11
-16 17 0 6 -8 19 -17 30 -10 11 -13 17 -6 13 7 -3 22 -20 33 -36z m-227 3 c-7
-2 -21 -2 -30 0 -10 3 -4 5 12 5 17 0 24 -2 18 -5z m60 0 c-7 -2 -19 -2 -25 0
-7 3 -2 5 12 5 14 0 19 -2 13 -5z m124 -9 c-3 -3 -12 -4 -19 -1 -8 3 -5 6 6 6
11 1 17 -2 13 -5z m-1894 -115 c119 -18 236 -47 345 -85 106 -37 129 -51 54
-32 -33 8 -60 7 -125 -6 -45 -9 -99 -16 -121 -16 -69 0 -272 -53 -347 -91 -20
-10 -39 -16 -42 -13 -12 12 -188 -109 -224 -154 -46 -59 -91 -101 -120 -112
-12 -5 -47 -40 -78 -77 -110 -131 -175 -248 -239 -425 -15 -43 -32 -78 -38
-78 -5 0 -7 -4 -3 -10 3 -5 -1 -40 -10 -77 -13 -56 -44 -247 -45 -276 0 -5 -4
-6 -9 -3 -5 3 -30 -29 -57 -72 -50 -80 -300 -344 -371 -392 -20 -14 -65 -46
-101 -73 -35 -26 -68 -45 -73 -42 -5 4 -9 -1 -9 -9 0 -9 -13 -22 -30 -31 -30
-15 -30 -15 -30 10 0 16 6 25 16 25 14 0 15 -2 3 -17 -13 -15 -12 -15 10 -4
19 10 21 15 10 22 -22 13 -16 33 16 50 22 12 32 13 37 5 5 -7 8 -4 8 8 0 12
-5 16 -15 12 -9 -3 -15 0 -15 9 0 8 -5 15 -11 15 -5 0 -9 -10 -7 -22 3 -26
-27 -38 -46 -18 -8 10 -6 12 11 7 12 -3 22 -2 21 2 -3 26 6 42 27 47 27 7 25
19 -2 19 -9 0 -17 6 -19 13 -1 7 0 8 3 2 8 -18 21 -11 37 20 10 21 11 30 3 31
-22 1 -49 7 -54 12 -2 3 -15 -5 -28 -17 -13 -11 -40 -30 -62 -41 -21 -10 -45
-24 -53 -31 -8 -7 -46 -29 -85 -49 -117 -62 -219 -154 -291 -265 -58 -91 -127
-227 -120 -239 4 -6 -3 -15 -15 -22 -30 -16 -159 -59 -159 -53 0 3 39 83 86
178 61 125 108 203 168 282 45 60 87 108 94 107 6 -2 9 3 7 10 -6 13 65 93
104 118 16 10 22 21 18 31 -5 15 -11 15 -64 1 -98 -25 -273 -104 -357 -160
-44 -30 -70 -43 -58 -30 12 13 20 26 16 29 -3 3 1 5 8 4 15 -1 24 17 10 22 -5
1 -17 -4 -26 -13 -9 -9 -16 -12 -16 -6 0 5 4 12 9 15 5 3 7 15 4 27 -4 14 -9
17 -16 10 -41 -41 -14 34 42 119 37 56 180 210 195 210 5 0 2 -8 -5 -17 -12
-15 -12 -16 3 -11 10 4 31 -5 55 -22 21 -16 41 -30 45 -30 4 0 29 -13 56 -29
115 -71 289 -71 492 0 160 56 184 72 343 228 111 108 176 196 215 288 26 61
26 64 7 57 -12 -5 -13 -2 -1 23 18 38 28 83 18 83 -4 0 -32 -34 -61 -75 -69
-96 -220 -241 -294 -283 -147 -83 -379 -127 -536 -102 -108 17 -245 63 -320
107 -73 43 -151 124 -200 207 -39 66 -81 199 -81 259 l0 40 29 -40 c64 -88
163 -145 305 -174 104 -21 154 -23 246 -9 285 46 562 222 784 498 44 54 62 70
69 60 6 -9 7 -8 3 5 -8 24 50 88 72 80 11 -3 13 -2 5 4 -15 11 82 117 99 107
6 -4 8 -3 5 3 -13 20 125 130 270 217 175 104 398 147 606 115z m1227 -83 c0
-2 -8 -10 -17 -17 -16 -13 -17 -12 -4 4 13 16 21 21 21 13z m2455 -56 c190
-34 345 -87 436 -147 278 -186 452 -447 451 -678 0 -88 -28 -188 -81 -293 -50
-98 -62 -106 -39 -27 41 145 16 323 -60 417 -42 52 -101 116 -146 158 -27 25
-70 65 -95 90 -65 62 -146 115 -281 182 -105 52 -234 98 -273 98 -9 0 -19 5
-23 11 -4 7 2 10 17 8 13 -2 30 0 37 4 8 5 12 3 12 -8 0 -11 8 -15 30 -13 17
1 30 6 30 11 0 5 7 4 15 -3 9 -7 18 -10 22 -7 3 4 12 2 20 -5 7 -6 16 -8 20
-5 3 4 12 2 18 -3 9 -7 14 -6 18 4 4 9 -21 33 -71 69 -42 30 -86 59 -97 65
-25 12 -116 32 -175 38 -25 2 -78 9 -118 15 -41 7 -118 10 -175 7 -76 -4 -90
-3 -57 3 139 28 432 33 565 9z m-2825 -54 c0 -3 -4 -8 -10 -11 -5 -3 -10 -1
-10 4 0 6 5 11 10 11 6 0 10 -2 10 -4z m-770 -47 c0 -13 -44 -18 -57 -7 -10 8
-12 7 -8 -3 3 -8 -5 -19 -20 -26 -14 -6 -23 -7 -19 -2 3 5 -2 9 -10 9 -10 0
-13 -6 -10 -15 5 -11 2 -13 -10 -9 -9 3 -16 2 -16 -4 0 -6 -20 -17 -45 -26
-32 -10 -43 -11 -38 -3 4 7 0 6 -10 -2 -13 -11 -17 -11 -17 -1 0 8 -3 10 -7 6
-4 -4 -8 -15 -8 -23 0 -9 -7 -18 -15 -20 -13 -4 -13 -3 0 6 11 8 12 11 2 11
-8 0 -16 -9 -19 -21 -3 -12 -11 -18 -19 -15 -7 3 -18 -3 -23 -12 -6 -9 -11
-13 -11 -8 0 5 -7 3 -15 -4 -8 -7 -15 -9 -15 -4 0 5 -5 2 -10 -6 -8 -13 -10
-12 -10 3 0 10 6 17 13 16 17 -3 47 11 47 22 0 6 -9 5 -20 -1 -15 -8 -20 -8
-20 2 0 9 -3 9 -11 -2 -9 -13 -10 -13 -6 0 2 8 11 14 20 12 8 -1 19 3 23 9 4
7 3 9 -4 5 -6 -3 -13 -2 -17 4 -4 6 9 17 27 25 18 8 29 14 23 15 -22 0 89 51
119 54 18 2 37 5 42 8 5 3 29 6 54 7 24 1 46 3 47 5 6 5 73 1 73 -5z m1126
-55 c-3 -9 -6 -18 -6 -20 0 -3 -6 1 -14 8 -10 9 -11 15 -2 20 19 13 28 9 22
-8z m-761 -24 c-11 -5 -27 -9 -35 -9 -9 0 -8 4 5 9 11 5 27 9 35 9 9 0 8 -4
-5 -9z m3225 0 c0 -5 -7 -10 -15 -10 -8 0 -15 5 -15 10 0 6 7 10 15 10 8 0 15
-4 15 -10z m-3307 -26 c-20 -10 -30 -21 -26 -30 7 -20 18 -17 35 8 14 20 15
21 15 2 0 -10 -5 -22 -11 -26 -19 -13 -46 -8 -46 8 0 12 -7 15 -25 11 -32 -6
-25 2 23 24 46 22 79 24 35 3z m186 -77 l-13 -85 -80 -16 c-139 -27 -261 -102
-374 -230 -58 -66 -130 -190 -160 -276 -21 -61 -34 -237 -22 -289 58 -251 51
-229 137 -409 34 -73 63 -138 63 -143 0 -6 5 -7 11 -3 8 4 8 0 0 -15 -8 -14
-8 -21 -1 -21 5 0 10 6 11 13 0 12 29 -71 29 -86 0 -5 -4 -5 -10 -2 -5 3 -10
16 -11 28 0 21 -1 21 -9 2 -5 -14 -2 -26 9 -39 15 -18 15 -18 -9 -6 -51 27
-205 195 -253 276 -93 158 -123 288 -114 504 9 204 53 349 152 500 55 82 197
232 216 228 7 -2 13 2 14 7 1 20 17 36 32 31 8 -3 12 -2 8 3 -5 10 32 40 75
60 l25 12 -22 -17 c-13 -9 -23 -24 -23 -33 0 -12 2 -13 9 -3 5 8 35 16 72 19
35 3 66 7 68 9 2 2 9 0 15 -5 7 -6 15 -2 22 14 9 19 9 22 -3 18 -13 -5 -13 -3
-1 16 10 17 15 19 23 8 6 -7 20 -16 33 -19 18 -5 21 -4 12 7 -8 10 -5 14 14
19 13 3 32 3 40 0 10 -4 16 -1 16 7 0 7 2 10 5 7 3 -3 0 -44 -6 -91z m604 78
c-3 -9 -8 -14 -10 -11 -3 3 -2 9 2 15 9 16 15 13 8 -4z m-1488 -15 c-3 -5 -12
-10 -18 -10 -7 0 -6 4 3 10 19 12 23 12 15 0z m635 -40 c-24 -15 -37 -11 -16
5 11 8 22 12 25 9 3 -3 -1 -9 -9 -14z m-674 -34 c0 -14 -5 -21 -9 -17 -4 4 -5
15 -1 24 9 24 12 21 10 -7z m2781 -102 c-3 -3 -12 -4 -19 -1 -8 3 -5 6 6 6 11
1 17 -2 13 -5z m-1797 -304 l31 -61 -25 -32 c-77 -103 -122 -255 -113 -387 3
-47 10 -97 16 -112 7 -20 7 -28 0 -28 -22 0 8 -134 34 -155 7 -5 25 -34 41
-64 22 -43 25 -56 14 -63 -10 -8 -9 -9 3 -5 10 3 24 -5 38 -23 l21 -29 -37 16
c-100 41 -204 146 -258 258 -45 94 -52 137 -30 173 l18 27 -23 -20 -23 -20 5
105 c4 75 13 127 31 181 41 122 143 278 171 262 6 -3 8 -3 4 2 -11 12 11 35
33 35 13 0 28 -19 49 -60z m-1387 -55 c-3 -9 -8 -14 -10 -11 -3 3 -2 9 2 15 9
16 15 13 8 -4z m248 -100 c-21 -58 -29 -78 -66 -160 -40 -89 -121 -296 -129
-327 -4 -20 -11 -26 -24 -22 -13 5 -14 4 -4 -4 11 -8 8 -29 -17 -119 -17 -60
-31 -118 -31 -128 0 -35 -21 -96 -30 -90 -5 3 -7 13 -4 23 5 14 4 14 -4 3 -6
-8 -8 -21 -4 -29 4 -11 1 -13 -7 -7 -10 5 -12 29 -7 94 8 117 8 115 16 126 4
6 10 23 14 38 4 16 11 25 17 21 7 -4 9 1 5 14 -13 40 62 286 107 354 13 18 50
77 84 130 59 92 94 140 99 135 2 -1 -5 -25 -15 -52z m-278 20 c-3 -9 -8 -14
-10 -11 -3 3 -2 9 2 15 9 16 15 13 8 -4z m4020 -109 c43 -19 103 -51 132 -72
76 -52 204 -186 257 -269 45 -70 92 -165 84 -172 -2 -2 -9 10 -16 27 -7 16
-17 27 -23 23 -6 -3 -7 -1 -3 6 12 18 -70 151 -93 151 -7 0 -10 4 -7 9 3 5 -1
14 -9 21 -12 10 -13 6 -11 -22 2 -18 1 -25 -1 -15 -2 9 -9 17 -14 17 -6 0 -6
7 -1 18 14 27 5 41 -76 119 -63 61 -78 71 -90 60 -13 -10 -15 -9 -9 5 4 11 -2
22 -18 32 -33 22 -42 20 -21 -3 10 -11 15 -24 12 -30 -4 -5 -2 -12 4 -16 5 -3
10 -12 10 -18 -1 -7 -6 -5 -13 4 -12 15 -14 15 -36 -2 -21 -17 -21 -19 -5 -20
11 -1 22 -1 25 -1 4 1 9 -12 11 -29 3 -21 1 -28 -8 -25 -7 3 -18 -2 -25 -10
-9 -12 -7 -18 12 -36 21 -18 21 -20 4 -14 -80 29 -146 32 -130 6 4 -6 32 -24
63 -40 90 -46 140 -83 224 -166 97 -96 171 -202 219 -314 117 -272 114 -476
-10 -715 -68 -131 -192 -235 -328 -275 -51 -16 -95 -7 -86 17 4 10 2 14 -4 10
-25 -15 -21 40 5 98 16 33 37 93 47 133 16 59 23 72 39 73 14 1 16 3 5 6 -13
3 -15 23 -11 140 4 140 -7 248 -35 338 -16 53 -20 63 -81 197 -22 48 -37 90
-34 94 4 4 2 4 -5 1 -6 -4 -31 15 -57 44 -35 39 -45 57 -41 73 5 17 4 18 -4 6
-10 -14 -15 -7 -12 13 1 5 -3 6 -7 3 -12 -7 -44 28 -40 44 2 7 -3 15 -11 18
-8 2 -11 0 -7 -6 3 -6 -7 -4 -24 4 -35 18 -36 20 -12 21 55 2 189 -48 177 -66
-2 -4 2 -8 8 -8 16 0 167 -101 167 -111 0 -4 10 -8 21 -9 12 -1 35 -15 52 -30
24 -22 29 -24 22 -8 -4 11 -18 50 -31 87 -24 72 -23 71 -99 155 -27 30 -49 60
-47 65 1 5 -2 7 -8 3 -6 -4 -25 4 -43 18 -18 13 -47 32 -66 42 -31 16 -33 18
-16 28 14 7 21 6 30 -6 11 -15 68 -19 58 -4 -3 5 -12 6 -19 3 -9 -3 -27 7 -44
24 -35 36 -43 38 -35 8 6 -22 5 -22 -6 -3 -7 11 -23 28 -36 38 -26 21 -30 49
-8 67 12 10 16 9 21 -4 4 -12 10 -13 24 -6 24 13 33 13 25 0 -3 -5 -2 -10 4
-10 18 0 21 18 4 31 -13 11 -17 11 -20 2 -6 -17 -28 -17 -41 0 -7 8 -7 18 -2
27 5 9 5 17 0 20 -13 8 62 120 80 120 8 0 50 -16 93 -34z m-1729 -55 c4 -5 -3
-7 -14 -4 -23 6 -26 13 -6 13 8 0 17 -4 20 -9z m866 -5 c0 -3 -4 -8 -10 -11
-5 -3 -10 -1 -10 4 0 6 5 11 10 11 6 0 10 -2 10 -4z m-900 -10 c0 -3 -4 -8
-10 -11 -5 -3 -10 -1 -10 4 0 6 5 11 10 11 6 0 10 -2 10 -4z m1900 -60 c0 -2
-8 -10 -17 -17 -16 -13 -17 -12 -4 4 13 16 21 21 21 13z m55 -26 c3 -5 1 -10
-4 -10 -6 0 -11 5 -11 10 0 6 2 10 4 10 3 0 8 -4 11 -10z m-25 -10 c0 -5 -4
-10 -9 -10 -5 0 -16 -3 -25 -6 -9 -3 -16 -1 -16 6 0 6 5 8 10 5 6 -3 10 -1 10
4 0 6 7 11 15 11 8 0 15 -4 15 -10z m64 -65 c-6 -14 -34 -10 -34 6 0 4 7 5 17
2 12 -5 14 -3 8 7 -5 8 -4 11 3 6 6 -4 9 -13 6 -21z m-134 0 c7 -9 8 -15 2
-15 -5 0 -12 7 -16 15 -3 8 -4 15 -2 15 2 0 9 -7 16 -15z m42 -20 c3 -13 1
-22 -3 -19 -9 5 -13 44 -5 44 2 0 6 -11 8 -25z m108 -9 c0 -3 -4 -8 -10 -11
-5 -3 -10 -1 -10 4 0 6 5 11 10 11 6 0 10 -2 10 -4z m-102 -31 c20 -14 40 -25
44 -25 4 0 30 -22 59 -50 29 -27 48 -50 43 -50 -6 0 -26 16 -45 36 -18 19 -60
52 -91 71 -32 20 -58 37 -58 39 0 9 13 3 48 -21z m128 -32 c-10 -11 -37 -12
-30 -2 3 5 12 9 21 9 9 0 13 -3 9 -7z m77 -8 c4 -8 3 -16 -1 -19 -4 -3 -9 4
-9 15 -2 23 3 25 10 4z m20 -60 c-3 -9 -8 -14 -10 -11 -3 3 -2 9 2 15 9 16 15
13 8 -4z m-8 -35 c3 -5 1 -10 -4 -10 -6 0 -11 5 -11 10 0 6 2 10 4 10 3 0 8
-4 11 -10z m-34 -17 c13 -16 12 -17 -3 -4 -17 13 -22 21 -14 21 2 0 10 -8 17
-17z m-2987 -58 c5 -22 4 -26 -4 -15 -5 8 -10 24 -10 34 0 26 6 18 14 -19z
m3104 -85 c17 -28 29 -50 27 -50 -3 0 -17 19 -32 43 -15 23 -36 53 -47 67
l-21 25 21 -18 c12 -10 35 -40 52 -67z m754 44 c332 -168 595 -455 688 -749
28 -87 38 -289 21 -389 -42 -239 -164 -438 -336 -544 -53 -33 -59 -34 -49 -8
5 13 9 14 14 5 6 -8 12 -5 20 11 7 13 25 34 40 47 15 12 31 34 34 48 4 14 11
25 16 25 6 0 10 5 10 12 0 6 6 19 14 27 7 9 27 50 44 91 58 142 65 410 16 605
-12 49 -59 155 -106 237 -101 179 -297 352 -448 394 -80 23 -86 31 -67 90 8
27 18 66 22 87 3 20 8 37 11 37 2 0 28 -12 56 -26z m-688 -64 c3 -14 -3 -7
-13 15 -11 22 -19 47 -19 55 0 17 22 -32 32 -70z m30 -124 c8 -44 14 -81 12
-83 -2 -2 -12 21 -23 51 -11 31 -16 57 -12 58 5 2 5 18 -1 37 -5 19 -6 30 -1
25 5 -5 16 -45 25 -88z m-991 -50 c31 -25 28 -56 -5 -56 -10 0 -16 5 -13 10 3
6 13 10 22 10 11 0 6 9 -17 30 -39 35 -28 40 13 6z m-3588 -46 c-4 -12 -9 -19
-12 -17 -3 3 -2 15 2 27 4 12 9 19 12 17 3 -3 2 -15 -2 -27z m3633 -35 c-3 -3
-9 2 -12 12 -6 14 -5 15 5 6 7 -7 10 -15 7 -18z m40 -11 c-4 -3 -12 5 -18 18
-12 22 -12 22 6 6 10 -10 15 -20 12 -24z m-5345 1 c-3 -9 -8 -14 -10 -11 -3 3
-2 9 2 15 9 16 15 13 8 -4z m1644 -17 c-3 -8 -6 -5 -6 6 -1 11 2 17 5 13 3 -3
4 -12 1 -19z m-2046 -21 c-10 -9 -11 -8 -5 6 3 10 9 15 12 12 3 -3 0 -11 -7
-18z m1225 -12 c-3 -23 -12 -26 -13 -5 -1 11 2 20 7 20 4 0 7 -7 6 -15z m4584
-19 c14 -18 13 -19 -2 -13 -10 3 -18 2 -18 -3 0 -6 -4 -10 -10 -10 -14 0 -13
23 2 38 6 6 12 11 13 9 0 -1 7 -11 15 -21z m-5799 -9 c-10 -9 -11 -8 -5 6 3
10 9 15 12 12 3 -3 0 -11 -7 -18z m1654 -45 c-34 -89 -99 -178 -213 -289 -141
-138 -324 -269 -480 -344 -161 -77 -313 -117 -479 -125 -134 -7 -139 -8 -166
-36 -16 -15 -32 -26 -36 -24 -4 3 -13 1 -21 -4 -12 -8 -11 -12 8 -25 12 -9 20
-20 17 -25 -6 -10 23 -22 36 -14 12 7 81 -16 94 -32 6 -7 19 -15 30 -18 11 -3
0 -2 -25 1 -103 13 -276 87 -347 148 -46 39 -124 151 -141 203 -13 38 -9 39
83 17 137 -33 359 -8 535 59 131 51 127 49 110 37 -8 -6 -12 -11 -8 -11 8 0
85 34 129 56 50 26 194 86 229 96 47 14 104 39 225 99 102 51 110 55 180 99
56 34 206 148 230 175 27 30 31 13 10 -43z m-1669 -84 c-10 -6 -22 -6 -26 -2
-5 5 3 10 18 11 22 1 24 0 8 -9z m5389 -18 c3 -5 -1 -10 -9 -10 -9 0 -16 5
-16 10 0 6 4 10 9 10 6 0 13 -4 16 -10z m-3365 -24 c0 -8 25 -65 56 -127 40
-80 56 -123 56 -150 -1 -65 -41 -250 -69 -318 -50 -121 -183 -273 -255 -291
-119 -30 -217 -89 -238 -144 -5 -14 -24 -25 -56 -34 -27 -7 -84 -31 -127 -52
l-79 -40 7 43 c27 169 91 413 117 445 7 8 37 31 68 52 30 21 101 84 157 141
141 143 255 299 324 442 23 46 39 60 39 33z m3320 -27 c0 -11 -4 -18 -10 -14
-5 3 -7 12 -3 20 7 21 13 19 13 -6z m-6040 -93 c0 -3 -4 -8 -10 -11 -5 -3 -10
-1 -10 4 0 6 5 11 10 11 6 0 10 -2 10 -4z m37 -12 c-3 -3 -12 -4 -19 -1 -8 3
-5 6 6 6 11 1 17 -2 13 -5z m6020 -76 c-8 -30 -20 -64 -26 -74 -13 -21 -12
-17 15 74 14 46 10 58 -6 16 -6 -14 -14 -22 -20 -19 -5 3 -10 2 -10 -2 0 -5
-9 -14 -19 -20 -15 -10 -20 -9 -25 2 -3 9 0 12 8 9 7 -3 19 2 26 11 8 10 9 15
1 15 -6 0 -11 -5 -11 -11 0 -6 -7 -9 -15 -5 -8 3 -19 -2 -24 -12 -6 -9 -11
-12 -11 -7 0 6 -33 9 -82 8 l-83 -1 80 8 c78 7 188 41 201 61 14 23 14 -2 1
-53z m-5343 31 c-6 -11 -24 -2 -24 11 0 5 7 7 15 4 8 -4 12 -10 9 -15z m-630
-38 c-2 -3 -12 3 -22 13 -16 17 -16 18 5 5 12 -7 20 -15 17 -18z m801 9 c3 -5
1 -10 -4 -10 -6 0 -11 5 -11 10 0 6 2 10 4 10 3 0 8 -4 11 -10z m-430 -20 c3
-6 -1 -7 -9 -4 -18 7 -21 14 -7 14 6 0 13 -4 16 -10z m5250 0 c3 -5 1 -10 -4
-10 -6 0 -11 5 -11 10 0 6 2 10 4 10 3 0 8 -4 11 -10z m45 -25 c10 -12 10 -15
-2 -15 -8 0 -15 7 -15 15 0 8 1 15 2 15 2 0 8 -7 15 -15z m-4805 -5 c-3 -5
-16 -10 -28 -9 -20 1 -20 2 3 9 14 4 26 8 28 9 2 1 0 -3 -3 -9z m4915 0 c0 -5
-4 -10 -10 -10 -5 0 -10 5 -10 10 0 6 5 10 10 10 6 0 10 -4 10 -10z m100 3 c0
-5 -14 -8 -31 -9 -20 -1 -26 2 -17 7 16 11 48 12 48 2z m60 -3 c0 -5 -7 -10
-15 -10 -8 0 -15 5 -15 10 0 6 7 10 15 10 8 0 15 -4 15 -10z m-5860 -45 c0 -5
-5 -3 -10 5 -5 8 -10 20 -10 25 0 6 5 3 10 -5 5 -8 10 -19 10 -25z m5495 25
c3 -6 -1 -7 -9 -4 -18 7 -21 14 -7 14 6 0 13 -4 16 -10z m-5190 -10 c3 -5 1
-10 -4 -10 -6 0 -11 5 -11 10 0 6 2 10 4 10 3 0 8 -4 11 -10z m530 0 c3 -5 2
-10 -4 -10 -5 0 -13 5 -16 10 -3 6 -2 10 4 10 5 0 13 -4 16 -10z m4965 0 c0
-5 -5 -10 -11 -10 -5 0 -7 5 -4 10 3 6 8 10 11 10 2 0 4 -4 4 -10z m-5420 -34
c0 -42 34 -155 66 -218 14 -27 22 -48 19 -48 -8 0 -65 122 -65 138 0 6 -6 12
-14 12 -8 0 -18 4 -21 10 -3 5 0 7 8 5 11 -5 11 5 3 57 -5 35 -15 66 -21 70
-6 5 -3 8 8 8 13 0 17 -8 17 -34z m60 -4 c0 -1 -9 2 -20 8 -11 6 -20 15 -20
20 0 6 9 2 20 -7 11 -10 20 -19 20 -21z m-675 18 c-3 -5 -12 -10 -18 -10 -7 0
-6 4 3 10 19 12 23 12 15 0z m25 -27 c-11 -17 -11 -17 -6 0 3 10 6 24 7 30 0
9 2 9 5 0 3 -7 0 -20 -6 -30z m1017 15 c-3 -8 -6 -5 -6 6 -1 11 2 17 5 13 3
-3 4 -12 1 -19z m5023 12 c0 -5 -5 -10 -11 -10 -5 0 -7 5 -4 10 3 6 8 10 11
10 2 0 4 -4 4 -10z m2930 -184 c80 -159 110 -278 111 -431 0 -275 -103 -543
-267 -695 -29 -27 -26 -21 15 28 29 34 48 62 42 62 -7 0 -1 20 13 47 20 36 23
50 14 60 -9 11 -8 13 2 11 7 -2 15 3 18 11 3 9 0 11 -8 6 -9 -6 -12 -4 -7 6
69 158 86 251 67 359 -7 36 -14 78 -17 94 -3 17 -14 53 -25 80 -11 28 -21 56
-22 61 -1 6 -14 33 -29 62 -15 29 -27 60 -27 70 0 15 -2 16 -10 3 -6 -10 -7
-2 -2 25 4 22 7 107 7 188 l0 149 32 -37 c18 -21 60 -92 93 -159z m-8736 169
c3 -8 1 -15 -4 -15 -6 0 -10 7 -10 15 0 8 2 15 4 15 2 0 6 -7 10 -15z m89 0
c-3 -9 -8 -14 -10 -11 -3 3 -2 9 2 15 9 16 15 13 8 -4z m-579 -21 c3 -8 2 -12
-4 -9 -6 3 -10 10 -10 16 0 14 7 11 14 -7z m106 12 c0 -3 -4 -8 -10 -11 -5 -3
-10 -1 -10 4 0 6 5 11 10 11 6 0 10 -2 10 -4z m1085 -3 c-11 -3 -23 -10 -27
-17 -5 -7 -8 -7 -8 0 0 16 11 24 34 23 20 -1 20 -1 1 -6z m162 -3 c16 13 17
12 3 -3 -17 -18 -139 -40 -192 -35 -18 2 6 7 55 12 69 6 87 11 83 22 -4 11 -2
11 14 2 14 -9 22 -9 37 2z m-392 -20 c3 -6 -1 -7 -9 -4 -18 7 -21 14 -7 14 6
0 13 -4 16 -10z m-944 -23 c-10 -9 -11 -8 -5 6 3 10 9 15 12 12 3 -3 0 -11 -7
-18z m770 0 c-10 -9 -11 -8 -5 6 3 10 9 15 12 12 3 -3 0 -11 -7 -18z m209 13
c0 -5 -2 -10 -4 -10 -3 0 -8 5 -11 10 -3 6 -1 10 4 10 6 0 11 -4 11 -10z m58
-7 c-10 -2 -26 -2 -35 0 -10 3 -2 5 17 5 19 0 27 -2 18 -5z m-1148 -7 c0 -3
-4 -8 -10 -11 -5 -3 -10 -1 -10 4 0 6 5 11 10 11 6 0 10 -2 10 -4z m555 -26
c3 -6 -1 -7 -9 -4 -18 7 -21 14 -7 14 6 0 13 -4 16 -10z m125 -26 c0 -2 -7 -4
-15 -4 -8 0 -15 4 -15 10 0 5 7 7 15 4 8 -4 15 -8 15 -10z m-707 -9 c-3 -9 -8
-14 -10 -11 -3 3 -2 9 2 15 9 16 15 13 8 -4z m50 -10 c-3 -9 -8 -14 -10 -11
-3 3 -2 9 2 15 9 16 15 13 8 -4z m132 -15 c3 -6 -1 -7 -9 -4 -18 7 -21 14 -7
14 6 0 13 -4 16 -10z m245 -10 c0 -5 -5 -10 -11 -10 -5 0 -7 5 -4 10 3 6 8 10
11 10 2 0 4 -4 4 -10z m420 -17 c0 -7 -4 -13 -9 -13 -5 0 -11 6 -14 13 -3 8 1
14 9 14 8 0 14 -6 14 -14z m33 2 c-3 -9 -8 -14 -10 -11 -3 3 -2 9 2 15 9 16
15 13 8 -4z m-723 -20 c0 -8 -4 -15 -10 -15 -5 0 -7 7 -4 15 4 8 8 15 10 15 2
0 4 -7 4 -15z m160 -15 c-8 -5 -19 -10 -25 -10 -5 0 -3 5 5 10 8 5 20 10 25
10 6 0 3 -5 -5 -10z m-270 -4 c0 -3 -4 -8 -10 -11 -5 -3 -10 -1 -10 4 0 6 5
11 10 11 6 0 10 -2 10 -4z m3641 -41 c8 -16 6 -15 -10 4 -12 13 -21 28 -21 35
0 12 14 -5 31 -39z m-3301 29 c0 -8 -19 -13 -24 -6 -3 5 1 9 9 9 8 0 15 -2 15
-3z m87 -16 c-3 -8 -6 -5 -6 6 -1 11 2 17 5 13 3 -3 4 -12 1 -19z m-280 -3 c0
-8 -4 -15 -9 -15 -4 0 -8 7 -8 15 0 8 4 15 8 15 5 0 9 -7 9 -15z m668 5 c-3
-5 -14 -10 -23 -9 -14 0 -13 2 3 9 27 11 27 11 20 0z m3059 -105 c74 -37 182
-65 251 -65 37 0 45 -6 99 -66 142 -159 336 -273 464 -274 43 0 41 15 -12 97
-45 70 -76 127 -76 139 0 3 18 -10 41 -31 60 -54 197 -141 292 -185 186 -86
312 -114 515 -114 78 0 142 -4 142 -8 0 -4 -6 -8 -13 -8 -7 0 -42 -19 -78 -42
-190 -122 -265 -242 -274 -436 l-3 -73 -65 -67 c-65 -68 -137 -170 -177 -253
l-23 -46 -51 34 c-59 39 -175 85 -261 104 -34 7 -124 13 -207 14 l-147 0 -42
93 c-36 79 -90 168 -176 287 l-22 30 20 75 c17 61 20 98 17 200 -4 124 -17
175 -41 167 -7 -2 -15 -38 -20 -87 -4 -46 -11 -97 -15 -114 -8 -28 -10 -25
-21 39 -17 95 -47 181 -78 221 -44 59 -162 103 -423 159 -63 14 -125 27 -138
30 -21 5 -17 10 38 47 55 36 140 130 140 154 0 30 24 31 77 3 30 -16 72 -34
94 -40 61 -19 67 -3 29 71 l-32 63 53 -42 c29 -23 84 -57 123 -76z m-3384 95
c0 -5 -8 -10 -17 -10 -15 0 -16 2 -3 10 19 12 20 12 20 0z m6331 -21 c-28 -23
-49 -25 -31 -4 7 8 16 12 21 9 5 -3 12 2 15 11 4 9 9 13 13 10 3 -4 -5 -15
-18 -26z m-6211 17 c0 -3 -4 -8 -10 -11 -5 -3 -10 -1 -10 4 0 6 5 11 10 11 6
0 10 -2 10 -4z m-410 -15 c0 -6 -4 -12 -8 -15 -5 -3 -9 1 -9 9 0 8 4 15 9 15
4 0 8 -4 8 -9z m630 -1 c0 -5 -8 -10 -17 -10 -15 0 -16 2 -3 10 19 12 20 12
20 0z m6049 -13 c-8 -7 -20 -12 -28 -9 -8 3 -11 0 -7 -7 4 -6 0 -21 -8 -33
l-16 -22 0 22 c0 29 -18 28 -50 -3 -19 -18 -27 -21 -27 -11 0 8 4 13 8 10 4
-2 13 5 19 17 9 16 18 20 40 16 22 -5 27 -2 26 11 0 10 6 17 16 17 9 0 20 4
24 8 4 4 9 5 12 2 2 -2 -2 -10 -9 -18z m-5828 -38 c25 -31 29 -43 20 -52 -7
-7 -11 -7 -9 -2 3 12 -33 75 -44 75 -4 0 -8 5 -8 10 0 17 7 12 41 -31z m-491
22 c0 -6 -4 -12 -8 -15 -5 -3 -9 1 -9 9 0 8 4 15 9 15 4 0 8 -4 8 -9z m6153
-21 c7 0 6 -4 -3 -10 -18 -11 -35 13 -23 33 5 9 8 7 11 -5 2 -10 9 -18 15 -18z
m-6663 10 c0 -5 -2 -10 -4 -10 -3 0 -8 5 -11 10 -3 6 -1 10 4 10 6 0 11 -4 11
-10z m200 0 c0 -5 -2 -10 -4 -10 -3 0 -8 5 -11 10 -3 6 -1 10 4 10 6 0 11 -4
11 -10z m-263 -32 c-3 -8 -6 -5 -6 6 -1 11 2 17 5 13 3 -3 4 -12 1 -19z m284
-1 c-10 -9 -11 -8 -5 6 3 10 9 15 12 12 3 -3 0 -11 -7 -18z m6370 -10 c-13
-13 -26 -3 -16 12 3 6 11 8 17 5 6 -4 6 -10 -1 -17z m-6646 -36 c-6 -5 -25 10
-25 20 0 5 6 4 14 -3 8 -7 12 -15 11 -17z m370 9 c3 -6 -1 -7 -9 -4 -18 7 -21
14 -7 14 6 0 13 -4 16 -10z m824 -77 c2 -2 0 -3 -5 -3 -5 0 -26 16 -46 36 -21
19 -42 32 -48 29 -6 -3 -7 1 -4 10 5 12 16 7 53 -26 25 -24 48 -44 50 -46z
m5456 77 c-3 -5 -12 -10 -18 -10 -7 0 -6 4 3 10 19 12 23 12 15 0z m75 -5 c-7
-8 -17 -15 -23 -15 -6 0 -2 7 9 15 25 19 30 19 14 0z m-6573 -1 c-3 -3 -12 -4
-19 -1 -8 3 -5 6 6 6 11 1 17 -2 13 -5z m5263 -184 c12 -25 34 -63 48 -85 l25
-40 -27 25 c-42 38 -106 176 -112 240 l-5 55 24 -75 c13 -41 34 -95 47 -120z
m-5446 144 c3 -8 2 -12 -4 -9 -6 3 -10 10 -10 16 0 14 7 11 14 -7z m1056 12
c0 -3 -4 -8 -10 -11 -5 -3 -10 -1 -10 4 0 6 5 11 10 11 6 0 10 -2 10 -4z m35
-45 c-6 -5 -25 10 -25 20 0 5 6 4 14 -3 8 -7 12 -15 11 -17z m-1006 16 c-2 -1
-11 -8 -21 -15 -12 -10 -18 -10 -24 -1 -4 7 -3 9 4 5 6 -3 13 -2 17 4 3 5 11
10 17 10 6 0 9 -1 7 -3z m7221 -57 c20 0 34 -26 19 -35 -17 -11 1 -26 20 -15
10 5 21 6 25 3 3 -3 6 1 6 10 0 10 -6 16 -12 15 -7 -2 -12 3 -10 10 1 8 -2 11
-7 7 -6 -3 -15 4 -21 16 -8 15 -9 19 -1 15 6 -4 11 -1 11 6 1 18 39 -30 114
-142 127 -189 205 -360 251 -551 19 -76 31 -305 20 -375 l-7 -49 -13 40 c-7
22 -23 74 -35 115 -11 41 -28 93 -35 115 -8 22 -16 51 -19 65 -4 24 -13 49
-59 168 -17 46 -18 55 -6 64 11 8 11 9 -3 4 -13 -4 -22 7 -38 50 -11 31 -17
61 -14 67 4 7 4 9 -1 5 -4 -4 -21 18 -37 50 -16 31 -50 94 -75 140 -24 46 -42
90 -39 98 3 8 2 13 -3 10 -4 -3 -21 23 -37 57 -29 62 -44 101 -23 60 7 -13 20
-23 29 -23z m-6026 15 c11 -8 15 -15 10 -15 -6 0 -19 7 -30 15 -10 8 -14 14
-9 14 6 0 19 -6 29 -14z m-315 2 c-2 -1 -13 -9 -24 -17 -19 -14 -19 -14 -6 3
7 9 18 17 24 17 6 0 8 -1 6 -3z m-55 -53 c3 -8 2 -12 -4 -9 -6 3 -10 10 -10
16 0 14 7 11 14 -7z m491 -4 c13 -6 15 -9 5 -9 -8 0 -22 4 -30 9 -18 12 -2 12
25 0z m76 -21 c21 -7 36 -16 33 -21 -4 -5 -11 -5 -17 0 -7 5 -25 14 -42 20
-41 14 -21 15 26 1z m39 -90 c0 -39 38 -177 62 -223 56 -110 162 -224 269
-288 63 -38 113 -68 158 -96 10 -7 11 -14 2 -31 -13 -24 -20 -25 -41 -10 -12
9 -11 10 7 6 12 -3 24 0 26 6 5 17 -21 40 -34 31 -8 -4 -9 -3 -5 4 7 11 -7 16
-44 13 -11 0 -11 1 -2 5 10 5 10 9 1 20 -6 8 -15 14 -19 14 -5 0 -32 16 -61
35 -30 19 -57 35 -61 35 -4 0 -22 15 -40 34 -18 18 -40 31 -48 29 -10 -3 -11
-2 -3 4 16 11 -67 111 -87 105 -13 -3 -13 -2 0 7 13 10 13 13 -1 24 -9 6 -19
25 -23 41 -4 16 -15 30 -26 33 -11 3 -20 10 -20 15 0 5 5 6 10 3 12 -7 14 8 3
19 -5 4 -8 11 -8 14 -1 4 -4 23 -8 42 -24 119 -30 167 -18 150 6 -8 11 -27 11
-41z m-427 22 c5 -19 -19 -38 -31 -26 -3 3 0 5 7 5 8 0 11 8 8 20 -3 11 -2 20
3 20 4 0 10 -9 13 -19z m394 -3 c-3 -8 -6 -5 -6 6 -1 11 2 17 5 13 3 -3 4 -12
1 -19z m-213 -17 c3 -5 -1 -11 -9 -14 -9 -4 -12 -1 -8 9 6 16 10 17 17 5z m26
-11 c0 -11 -4 -20 -9 -20 -5 0 -7 9 -4 20 3 11 7 20 9 20 2 0 4 -9 4 -20z
m-67 3 c-7 -2 -19 -2 -25 0 -7 3 -2 5 12 5 14 0 19 -2 13 -5z m237 -29 c0 -2
-7 -4 -15 -4 -8 0 -15 4 -15 10 0 5 7 7 15 4 8 -4 15 -8 15 -10z m-73 -26 c-3
-8 -6 -5 -6 6 -1 11 2 17 5 13 3 -3 4 -12 1 -19z m1888 -71 c255 -54 411 -133
592 -302 130 -120 257 -337 293 -501 34 -155 24 -362 -25 -509 -25 -76 -109
-247 -152 -312 -51 -77 -210 -241 -292 -302 -85 -63 -230 -135 -321 -160 -104
-29 -285 -43 -400 -32 -111 12 -253 48 -342 89 -215 98 -431 299 -528 492 -73
146 -127 332 -136 475 -10 153 30 377 96 531 54 124 203 300 328 386 105 72
283 145 409 168 92 17 347 4 478 -23z m-1900 -47 c3 -6 -1 -7 -9 -4 -18 7 -21
14 -7 14 6 0 13 -4 16 -10z m133 -45 c-3 -3 -9 2 -12 12 -6 14 -5 15 5 6 7 -7
10 -15 7 -18z m-293 -3 c-3 -3 -11 0 -18 7 -9 10 -8 11 6 5 10 -3 15 -9 12
-12z m290 -32 c-3 -5 -12 -10 -18 -10 -7 0 -6 4 3 10 19 12 23 12 15 0z m-224
-17 c13 -16 12 -17 -3 -4 -10 7 -18 15 -18 17 0 8 8 3 21 -13z m-216 -3 c3 -5
1 -10 -4 -10 -6 0 -11 5 -11 10 0 6 2 10 4 10 3 0 8 -4 11 -10z m485 -10 c0
-5 -2 -10 -4 -10 -3 0 -8 5 -11 10 -3 6 -1 10 4 10 6 0 11 -4 11 -10z m-590
-100 c0 -5 -5 -10 -11 -10 -5 0 -7 5 -4 10 3 6 8 10 11 10 2 0 4 -4 4 -10z
m235 -70 c-3 -5 -12 -10 -18 -10 -7 0 -6 4 3 10 19 12 23 12 15 0z m-215 -10
c0 -5 -2 -10 -4 -10 -3 0 -8 5 -11 10 -3 6 -1 10 4 10 6 0 11 -4 11 -10z m270
6 c0 -2 -7 -6 -15 -10 -8 -3 -15 -1 -15 4 0 6 7 10 15 10 8 0 15 -2 15 -4z
m141 -19 c-10 -9 -11 -8 -5 6 3 10 9 15 12 12 3 -3 0 -11 -7 -18z m200 -4 c13
-17 13 -17 -6 -3 -11 8 -22 16 -24 17 -2 2 0 3 6 3 6 0 17 -8 24 -17z m43 -19
c3 -8 2 -12 -4 -9 -6 3 -10 10 -10 16 0 14 7 11 14 -7z m166 -14 c0 -5 -5 -10
-11 -10 -5 0 -7 5 -4 10 3 6 8 10 11 10 2 0 4 -4 4 -10z m-983 -62 c-3 -8 -6
-5 -6 6 -1 11 2 17 5 13 3 -3 4 -12 1 -19z m903 12 c8 -5 11 -10 5 -10 -5 0
-17 5 -25 10 -8 5 -10 10 -5 10 6 0 17 -5 25 -10z m4363 -14 l58 -23 -158 -6
c-126 -4 -175 -10 -243 -29 -242 -69 -374 -149 -513 -306 -151 -172 -228 -403
-229 -688 0 -220 55 -401 177 -584 155 -232 364 -381 642 -457 87 -24 116 -27
258 -27 144 0 170 3 260 28 108 29 256 95 330 146 170 117 329 333 401 544 92
270 77 611 -36 836 -80 159 -256 334 -431 429 -38 21 -46 30 -34 35 36 13 74
4 133 -31 195 -119 371 -330 437 -524 93 -273 75 -576 -50 -836 -139 -291
-341 -500 -578 -600 -402 -169 -872 -87 -1189 209 -241 226 -368 515 -368 841
0 251 60 463 185 651 49 75 191 207 273 255 230 134 532 196 675 137z m-4383
-6 c0 -5 -5 -10 -11 -10 -5 0 -7 5 -4 10 3 6 8 10 11 10 2 0 4 -4 4 -10z
m-480 -34 c-4 -4 -16 -4 -26 2 -16 9 -14 10 8 9 15 -1 23 -6 18 -11z m379 -10
c10 -12 8 -13 -8 -9 -12 3 -18 9 -15 14 7 12 10 11 23 -5z m245 6 c2 -4 -11
-12 -30 -18 -38 -12 -46 -5 -11 12 29 15 35 16 41 6z m-1193 -25 c-10 -9 -11
-8 -5 6 3 10 9 15 12 12 3 -3 0 -11 -7 -18z m1274 13 c3 -5 1 -10 -4 -10 -6 0
-11 5 -11 10 0 6 2 10 4 10 3 0 8 -4 11 -10z m4945 0 c23 -12 131 -144 153
-187 9 -17 19 -58 22 -90 6 -58 6 -58 -12 -33 -58 82 -279 280 -312 280 -6 0
-11 4 -11 9 0 5 26 13 58 19 79 13 81 13 102 2z m-5965 -10 c3 -5 1 -10 -4
-10 -6 0 -11 5 -11 10 0 6 2 10 4 10 3 0 8 -4 11 -10z m450 -18 c-3 -3 -11 0
-18 7 -9 10 -8 11 6 5 10 -3 15 -9 12 -12z m-475 -2 c0 -5 -2 -10 -4 -10 -3 0
-8 5 -11 10 -3 6 -1 10 4 10 6 0 11 -4 11 -10z m775 -10 c0 -7 -7 -15 -15 -17
-13 -4 -13 -3 0 6 13 10 13 12 0 22 -13 9 -13 10 0 6 8 -2 15 -10 15 -17z
m-908 -6 c-3 -3 -12 -4 -19 -1 -8 3 -5 6 6 6 11 1 17 -2 13 -5z m33 -29 c0 -8
-2 -15 -4 -15 -2 0 -6 7 -10 15 -3 8 -1 15 4 15 6 0 10 -7 10 -15z m455 5 c-3
-5 -12 -10 -18 -10 -7 0 -6 4 3 10 19 12 23 12 15 0z m185 -10 c0 -5 -5 -10
-11 -10 -5 0 -7 5 -4 10 3 6 8 10 11 10 2 0 4 -4 4 -10z m533 -2 c15 -12 15
-18 3 -58 -12 -42 -15 -45 -52 -48 -44 -4 -64 15 -64 59 0 48 71 78 113 47z
m-606 -20 c-3 -8 -6 -5 -6 6 -1 11 2 17 5 13 3 -3 4 -12 1 -19z m346 -20 c-11
-13 -32 -43 -46 -68 -29 -50 -36 -48 -11 3 16 31 63 87 73 87 2 0 -5 -10 -16
-22z m-913 8 c0 -2 -7 -7 -16 -10 -8 -3 -12 -2 -9 4 6 10 25 14 25 6z m210
-50 c0 -2 -8 -10 -17 -17 -16 -13 -17 -12 -4 4 13 16 21 21 21 13z m-700 -37
c0 -5 -4 -9 -8 -9 -5 0 -9 7 -9 15 0 8 4 12 9 9 4 -3 8 -9 8 -15z m1610 -81
c26 -8 27 -11 19 -51 -4 -23 -8 -45 -9 -49 0 -5 -19 -8 -43 -8 -53 0 -128 -36
-144 -70 -18 -36 -1 -44 40 -20 20 12 61 24 92 27 48 5 55 4 49 -10 -10 -27
15 -217 41 -316 l25 -93 -29 -62 c-58 -120 -64 -273 -15 -426 24 -76 81 -160
109 -160 9 0 11 -12 8 -42 -2 -24 -7 -134 -11 -246 l-7 -204 -51 79 c-148 227
-273 533 -330 808 -24 115 -27 153 -28 330 0 212 12 315 55 446 25 75 33 93
66 136 l24 33 56 -46 c31 -26 69 -50 83 -56z m-1640 88 c0 -3 -4 -8 -10 -11
-5 -3 -10 -1 -10 4 0 6 5 11 10 11 6 0 10 -2 10 -4z m84 -21 c-4 -8 -10 -15
-15 -15 -4 0 -6 7 -3 15 4 8 10 15 15 15 4 0 6 -7 3 -15z m1166 11 c0 -2 -7
-7 -16 -10 -8 -3 -12 -2 -9 4 6 10 25 14 25 6z m-1316 -21 c-4 -8 -11 -15 -16
-15 -6 0 -5 6 2 15 7 8 14 15 16 15 2 0 1 -7 -2 -15z m6074 -16 c173 -21 437
-110 587 -199 l103 -61 35 -77 c101 -223 108 -467 20 -737 -109 -337 -367
-575 -723 -666 -254 -66 -573 -3 -794 155 -130 94 -282 278 -346 421 -125 280
-115 642 26 915 24 47 70 114 102 150 l59 64 28 -22 c34 -27 46 -27 128 -2
129 40 498 83 632 73 33 -2 98 -8 143 -14z m-5601 5 c-3 -3 -12 -4 -19 -1 -8
3 -5 6 6 6 11 1 17 -2 13 -5z m643 2 c0 -3 -4 -8 -10 -11 -5 -3 -10 -1 -10 4
0 6 5 11 10 11 6 0 10 -2 10 -4z m-780 -16 c0 -5 -2 -10 -4 -10 -3 0 -8 5 -11
10 -3 6 -1 10 4 10 6 0 11 -4 11 -10z m1067 -52 c-12 -33 -23 -54 -25 -48 -2
6 3 29 12 51 9 22 14 44 12 48 -3 4 1 8 8 8 11 0 9 -13 -7 -59z m-1362 42 c3
-5 1 -10 -4 -10 -6 0 -11 5 -11 10 0 6 2 10 4 10 3 0 8 -4 11 -10z m710 0 c-3
-5 -12 -10 -18 -10 -7 0 -6 4 3 10 19 12 23 12 15 0z m515 -10 c0 -5 -5 -10
-11 -10 -5 0 -7 5 -4 10 3 6 8 10 11 10 2 0 4 -4 4 -10z m-690 -14 c0 -2 -11
-6 -25 -8 -13 -3 -22 -1 -19 3 5 9 44 13 44 5z m-345 -26 c-3 -5 -11 -10 -16
-10 -6 0 -7 5 -4 10 3 6 11 10 16 10 6 0 7 -4 4 -10z m265 -21 c0 -6 -4 -7
-10 -4 -5 3 -10 11 -10 16 0 6 5 7 10 4 6 -3 10 -11 10 -16z m291 -6 c13 -16
12 -17 -3 -4 -17 13 -22 21 -14 21 2 0 10 -8 17 -17z m189 13 c0 -3 -4 -8 -10
-11 -5 -3 -10 -1 -10 4 0 6 5 11 10 11 6 0 10 -2 10 -4z m-1109 -39 c-10 -9
-11 -8 -5 6 3 10 9 15 12 12 3 -3 0 -11 -7 -18z m329 13 c0 -5 -5 -10 -11 -10
-5 0 -7 5 -4 10 3 6 8 10 11 10 2 0 4 -4 4 -10z m6954 -159 c28 -17 57 -31 66
-31 24 0 40 -107 40 -263 l0 -125 -100 26 c-85 23 -100 30 -100 47 0 37 -38
203 -64 285 -22 67 -25 90 -20 149 l7 68 61 -62 c33 -34 83 -76 110 -94z
m-5916 114 c-3 -3 -9 2 -12 12 -6 14 -5 15 5 6 7 -7 10 -15 7 -18z m121 -70
c-13 -59 -18 -73 -14 -40 5 52 7 61 20 108 16 60 13 16 -6 -68z m-1406 78 c-7
-2 -19 -2 -25 0 -7 3 -2 5 12 5 14 0 19 -2 13 -5z m212 -3 c3 -5 1 -10 -4 -10
-6 0 -11 5 -11 10 0 6 2 10 4 10 3 0 8 -4 11 -10z m4353 -19 c77 -23 191 -75
231 -108 22 -18 23 -22 12 -56 -7 -20 -15 -37 -18 -37 -3 0 -17 8 -31 19 -102
71 -252 120 -398 128 -98 6 -160 -5 -252 -44 -10 -4 -12 7 -10 43 l3 49 65 17
c89 25 294 18 398 -11z m-4171 -3 c-3 -8 -6 -5 -6 6 -1 11 2 17 5 13 3 -3 4
-12 1 -19z m590 16 c-3 -3 -12 -4 -19 -1 -8 3 -5 6 6 6 11 1 17 -2 13 -5z m73
-4 c0 -5 -2 -10 -4 -10 -3 0 -8 5 -11 10 -3 6 -1 10 4 10 6 0 11 -4 11 -10z
m-875 -20 c3 -6 -1 -7 -9 -4 -18 7 -21 14 -7 14 6 0 13 -4 16 -10z m715 0 c8
-5 11 -10 5 -10 -5 0 -17 5 -25 10 -8 5 -10 10 -5 10 6 0 17 -5 25 -10z m80
-67 c-11 -17 -11 -17 -6 0 3 10 7 33 8 50 l1 32 4 -32 c2 -18 -1 -41 -7 -50z
m-265 57 c3 -5 1 -10 -4 -10 -6 0 -11 5 -11 10 0 6 2 10 4 10 3 0 8 -4 11 -10z
m341 -87 c-5 -6 -26 65 -25 87 0 8 7 -7 15 -34 9 -26 13 -50 10 -53z m-109 71
c-3 -3 -12 -4 -19 -1 -8 3 -5 6 6 6 11 1 17 -2 13 -5z m-1062 -24 c3 -6 -1 -7
-9 -4 -18 7 -21 14 -7 14 6 0 13 -4 16 -10z m525 -20 c0 -5 -2 -10 -4 -10 -3
0 -8 5 -11 10 -3 6 -1 10 4 10 6 0 11 -4 11 -10z m4053 -34 c42 -8 99 -25 129
-37 65 -27 188 -98 188 -109 0 -4 -4 -30 -10 -58 -9 -47 -12 -77 -25 -227 -8
-89 14 -264 46 -370 63 -203 168 -373 323 -523 183 -177 365 -269 614 -312
476 -82 896 103 1171 517 104 156 147 263 207 519 1 8 29 4 86 -11 97 -26 90
3 65 -243 -27 -260 -19 -384 25 -398 24 -7 26 -5 113 118 108 150 310 360 438
454 171 127 351 170 463 113 101 -51 148 -187 148 -419 -1 -232 -62 -454 -196
-712 -93 -177 -205 -316 -361 -447 -161 -134 -297 -209 -457 -251 -111 -29
-249 -25 -322 10 -27 12 -48 27 -48 34 0 6 14 58 30 115 33 115 41 182 23 188
-16 6 -98 -159 -198 -395 -167 -396 -334 -675 -537 -898 -126 -139 -416 -406
-608 -560 -308 -247 -727 -513 -970 -617 -319 -136 -680 -153 -1075 -52 -351
90 -571 245 -753 530 -46 72 -145 234 -221 360 -75 127 -186 311 -247 410
-109 177 -131 215 -212 365 -190 354 -282 732 -299 1230 -5 173 12 871 23 928
l6 29 76 -77 c144 -144 304 -245 483 -304 143 -47 244 -60 403 -53 153 7 243
28 386 91 130 57 217 117 336 229 223 210 318 384 375 685 24 124 41 153 53
88 7 -38 -6 -136 -28 -206 -62 -200 -242 -530 -426 -782 -135 -185 -209 -318
-240 -432 -25 -90 -22 -134 14 -211 26 -57 125 -184 178 -232 20 -17 35 -33
32 -35 -2 -2 16 -23 40 -46 32 -30 43 -36 39 -22 -3 11 -9 20 -14 20 -5 0 -9
5 -9 10 0 7 7 7 21 0 11 -7 18 -14 15 -17 -3 -4 -1 -12 5 -20 6 -7 8 -13 5
-13 -4 0 0 -7 9 -16 22 -22 33 -9 12 14 -19 20 -22 42 -8 42 5 0 12 -6 15 -12
2 -7 3 -2 1 12 -2 14 -4 28 -4 33 -1 4 -6 7 -12 7 -8 0 -8 -5 1 -15 10 -12 10
-15 -4 -15 -9 0 -16 4 -16 8 0 12 -32 11 -47 0 -7 -5 -14 -5 -18 2 -3 5 2 10
12 10 14 1 13 4 -7 15 -25 14 -25 14 -2 15 12 0 22 -4 22 -10 0 -5 9 -10 20
-10 31 0 24 18 -10 25 -16 4 -32 11 -35 16 -4 5 2 6 11 2 12 -4 15 -3 10 5 -5
8 -2 10 9 6 11 -5 14 -2 9 10 -3 9 -13 16 -22 16 -13 0 -12 3 4 15 18 14 18
15 -6 6 -18 -6 -26 -17 -30 -42 -5 -33 -6 -32 -61 61 -81 137 -94 177 -94 290
0 76 5 107 23 152 30 73 101 181 187 283 110 131 161 210 244 379 218 441 259
555 248 689 l-6 67 84 0 c46 0 117 -6 158 -14z m-4593 -6 c0 -5 -2 -10 -4 -10
-3 0 -8 5 -11 10 -3 6 -1 10 4 10 6 0 11 -4 11 -10z m965 -1 c11 -16 1 -19
-13 -3 -7 8 -8 14 -3 14 5 0 13 -5 16 -11z m-715 -20 c0 -5 -4 -9 -8 -9 -5 0
-9 7 -9 15 0 8 4 12 9 9 4 -3 8 -9 8 -15z m842 -31 c-8 -8 -9 -4 -5 13 4 13 8
18 11 10 2 -7 -1 -18 -6 -23z m143 -23 c15 -27 23 -45 17 -40 -12 12 -52 83
-52 92 0 10 6 1 35 -52z m-225 41 c0 -3 -4 -8 -10 -11 -5 -3 -10 -1 -10 4 0 6
5 11 10 11 6 0 10 -2 10 -4z m504 -98 c-7 -108 -20 -155 -18 -65 1 62 14 167
20 167 2 0 1 -46 -2 -102z m-1068 71 c-22 -17 -30 -19 -39 -9 -9 10 -9 11 1 6
6 -4 19 0 28 8 8 9 20 16 26 16 6 0 -1 -10 -16 -21z m-296 1 c0 -5 -5 -10 -11
-10 -5 0 -7 5 -4 10 3 6 8 10 11 10 2 0 4 -4 4 -10z m349 -49 c-6 -29 -13 -50
-16 -47 -3 3 0 28 7 56 16 66 24 59 9 -9z m64 34 c-3 -9 -8 -14 -10 -11 -3 3
-2 9 2 15 9 16 15 13 8 -4z m172 -13 c-3 -3 -11 0 -18 7 -9 10 -8 11 6 5 10
-3 15 -9 12 -12z m-620 -10 c-3 -3 -11 0 -18 7 -9 10 -8 11 6 5 10 -3 15 -9
12 -12z m275 8 c0 -5 -2 -10 -4 -10 -3 0 -8 5 -11 10 -3 6 -1 10 4 10 6 0 11
-4 11 -10z m-317 -7 c-7 -2 -13 -11 -13 -19 0 -9 -5 -12 -10 -9 -13 8 6 35 24
34 7 0 6 -2 -1 -6z m747 -3 c-8 -5 -19 -10 -25 -10 -5 0 -3 5 5 10 8 5 20 10
25 10 6 0 3 -5 -5 -10z m-260 -6 c0 -8 -19 -13 -24 -6 -3 5 1 9 9 9 8 0 15 -2
15 -3z m511 -17 c-10 -9 -11 -8 -5 6 3 10 9 15 12 12 3 -3 0 -11 -7 -18z
m-721 2 c-33 -22 -112 -60 -117 -55 -3 2 18 14 46 27 28 12 51 25 51 30 0 5 8
9 18 9 15 0 15 -2 2 -11z m-185 -19 c3 -5 1 -10 -4 -10 -6 0 -11 5 -11 10 0 6
2 10 4 10 3 0 8 -4 11 -10z m1119 -6 c5 -14 4 -15 -9 -4 -17 14 -19 20 -6 20
5 0 12 -7 15 -16z m-1159 -24 c3 -5 1 -10 -4 -10 -6 0 -11 5 -11 10 0 6 2 10
4 10 3 0 8 -4 11 -10z m-150 -10 c3 -5 1 -10 -4 -10 -6 0 -11 5 -11 10 0 6 2
10 4 10 3 0 8 -4 11 -10z m498 -61 c-5 -5 -6 11 -3 34 4 41 5 41 8 8 2 -18 0
-37 -5 -42z m134 49 c-3 -8 -6 -5 -6 6 -1 11 2 17 5 13 3 -3 4 -12 1 -19z
m-407 6 c0 -9 -91 -46 -97 -40 -4 3 -1 6 6 6 7 0 9 5 5 12 -4 6 -3 8 4 4 6 -3
26 0 44 8 41 18 38 17 38 10z m720 -4 c0 -5 -2 -10 -4 -10 -3 0 -8 5 -11 10
-3 6 -1 10 4 10 6 0 11 -4 11 -10z m-157 -7 c-7 -2 -19 -2 -25 0 -7 3 -2 5 12
5 14 0 19 -2 13 -5z m273 -40 c-8 -15 -15 -22 -16 -15 0 14 22 53 28 47 2 -2
-3 -16 -12 -32z m318 8 c-2 -3 -12 3 -22 13 -16 17 -16 18 5 5 12 -7 20 -15
17 -18z m-1314 -21 c-14 -4 -41 -8 -60 -8 l-35 1 35 7 c19 4 46 8 60 8 l25 0
-25 -8z m1374 -29 c-3 -3 -15 6 -27 18 l-22 24 27 -19 c14 -10 24 -21 22 -23z
m-940 -42 c-2 -83 -14 -88 -14 -6 0 37 3 67 8 67 4 0 6 -27 6 -61z m1023 14
c-3 -10 -5 -2 -5 17 0 19 2 27 5 18 2 -10 2 -26 0 -35z m-502 -20 c-39 -93
-166 -253 -225 -282 -17 -9 -14 -4 10 16 59 48 81 73 74 85 -4 6 -3 8 3 5 12
-8 97 106 124 167 24 55 36 62 14 9z m8780 17 c3 -6 -1 -7 -9 -4 -18 7 -21 14
-7 14 6 0 13 -4 16 -10z m-9058 -16 c-3 -3 -12 -4 -19 -1 -8 3 -5 6 6 6 11 1
17 -2 13 -5z m53 -14 c0 -5 -5 -10 -11 -10 -5 0 -7 5 -4 10 3 6 8 10 11 10 2
0 4 -4 4 -10z m8947 -12 c-3 -8 -6 -5 -6 6 -1 11 2 17 5 13 3 -3 4 -12 1 -19z
m70 -40 c-3 -8 -6 -5 -6 6 -1 11 2 17 5 13 3 -3 4 -12 1 -19z m178 2 c3 -5 1
-10 -4 -10 -6 0 -11 5 -11 10 0 6 2 10 4 10 3 0 8 -4 11 -10z m-154 -23 c-10
-9 -11 -8 -5 6 3 10 9 15 12 12 3 -3 0 -11 -7 -18z m-2439 -25 c3 -4 2 -31 -4
-60 l-11 -53 -51 6 c-62 9 -65 10 -61 33 2 9 4 38 4 64 l1 46 58 -15 c31 -8
60 -18 64 -21z m2261 13 c-3 -9 -8 -14 -10 -11 -3 3 -2 9 2 15 9 16 15 13 8
-4z m-9137 -7 c4 -6 3 -8 -4 -4 -6 3 -13 -2 -15 -11 -4 -14 -5 -13 -6 5 -1 23
13 30 25 10z m1537 -97 l45 -99 -14 -109 c-8 -59 -18 -128 -22 -153 l-8 -45
-27 40 c-49 73 -70 150 -71 260 -1 74 4 114 17 153 10 28 22 52 26 52 5 0 29
-45 54 -99z m7502 89 c-3 -5 -12 -10 -18 -10 -7 0 -6 4 3 10 19 12 23 12 15 0z
m-8911 -15 c3 -8 1 -15 -3 -15 -5 0 -11 7 -15 15 -3 8 -1 15 3 15 5 0 11 -7
15 -15z m7046 -51 c96 -24 205 -49 242 -55 l68 -12 -64 -43 c-62 -42 -64 -42
-107 -31 -24 6 -123 27 -219 47 l-175 35 -3 33 c-5 49 21 84 56 76 15 -3 106
-26 202 -50z m1830 42 c0 -2 -7 -7 -16 -10 -8 -3 -12 -2 -9 4 6 10 25 14 25 6z
m-8997 -58 c9 -21 14 -38 11 -38 -5 0 -34 64 -34 76 0 12 7 0 23 -38z m9027
38 c0 -2 -7 -7 -16 -10 -8 -3 -12 -2 -9 4 6 10 25 14 25 6z m-8970 -111 c25
-19 37 -22 47 -14 8 7 13 8 13 1 0 -23 -34 -21 -66 3 -30 23 -41 35 -31 35 2
0 18 -11 37 -25z m9280 15 c0 -5 -5 -10 -11 -10 -5 0 -7 5 -4 10 3 6 8 10 11
10 2 0 4 -4 4 -10z m259 7 c-2 -1 -13 -9 -24 -17 -19 -14 -19 -14 -6 3 7 9 18
17 24 17 6 0 8 -1 6 -3z m-9434 -57 c-3 -5 -18 -9 -33 -9 l-27 1 30 8 c17 4
31 8 33 9 2 0 0 -3 -3 -9z m45 2 c0 -5 -7 -9 -15 -9 -8 0 -12 4 -9 9 3 4 9 8
15 8 5 0 9 -4 9 -8z m8570 -2 c0 -5 -5 -10 -11 -10 -5 0 -7 5 -4 10 3 6 8 10
11 10 2 0 4 -4 4 -10z m615 -9 c-3 -6 -11 -11 -16 -11 -5 0 -4 6 3 14 14 16
24 13 13 -3z m275 -11 c0 -5 -2 -10 -4 -10 -3 0 -8 5 -11 10 -3 6 -1 10 4 10
6 0 11 -4 11 -10z m-983 -6 c-3 -4 -1 -16 5 -28 11 -21 11 -21 -9 -1 -14 14
-17 22 -9 27 14 9 22 10 13 2z m458 -4 c-3 -5 -12 -10 -18 -10 -7 0 -6 4 3 10
19 12 23 12 15 0z m-665 -20 c0 -5 -8 -10 -17 -10 -15 0 -16 2 -3 10 19 12 20
12 20 0z m65 0 c-3 -5 -12 -10 -18 -10 -7 0 -6 4 3 10 19 12 23 12 15 0z m889
-38 c3 -5 -1 -9 -9 -9 -8 0 -12 4 -9 9 3 4 7 8 9 8 2 0 6 -4 9 -8z m-879 -22
c3 -5 1 -10 -4 -10 -6 0 -11 5 -11 10 0 6 2 10 4 10 3 0 8 -4 11 -10z m890
-10 c3 -6 -1 -7 -9 -4 -18 7 -21 14 -7 14 6 0 13 -4 16 -10z m97 -17 c-6 -2
-10 -9 -6 -14 3 -5 0 -9 -5 -9 -12 0 -14 13 -4 23 3 4 11 7 17 6 6 0 5 -3 -2
-6z m-545 -19 c-3 -3 -12 -4 -19 -1 -8 3 -5 6 6 6 11 1 17 -2 13 -5z m553 -34
c0 -5 -5 -10 -11 -10 -5 0 -7 5 -4 10 3 6 8 10 11 10 2 0 4 -4 4 -10z m-905
-60 c-3 -5 -12 -10 -18 -10 -7 0 -6 4 3 10 19 12 23 12 15 0z m946 -47 c13
-16 12 -17 -3 -4 -10 7 -18 15 -18 17 0 8 8 3 21 -13z m-641 -13 c0 -5 -2 -10
-4 -10 -3 0 -8 5 -11 10 -3 6 -1 10 4 10 6 0 11 -4 11 -10z m625 -10 c-3 -5
-12 -10 -18 -10 -7 0 -6 4 3 10 19 12 23 12 15 0z m-955 -20 c0 -5 -2 -10 -4
-10 -3 0 -8 5 -11 10 -3 6 -1 10 4 10 6 0 11 -4 11 -10z m918 -45 c-3 -3 -9 2
-12 12 -6 14 -5 15 5 6 7 -7 10 -15 7 -18z m-385 -30 c-3 -9 -8 -14 -10 -11
-3 3 -2 9 2 15 9 16 15 13 8 -4z m187 5 c0 -5 -5 -10 -11 -10 -5 0 -7 5 -4 10
3 6 8 10 11 10 2 0 4 -4 4 -10z m-650 -10 c0 -5 -5 -10 -11 -10 -5 0 -7 5 -4
10 3 6 8 10 11 10 2 0 4 -4 4 -10z m807 -6 c-3 -3 -12 -4 -19 -1 -8 3 -5 6 6
6 11 1 17 -2 13 -5z m18 -44 c3 -5 1 -10 -4 -10 -6 0 -11 5 -11 10 0 6 2 10 4
10 3 0 8 -4 11 -10z m-785 -10 c0 -5 -5 -10 -11 -10 -5 0 -7 5 -4 10 3 6 8 10
11 10 2 0 4 -4 4 -10z m540 -70 c0 -5 -2 -10 -4 -10 -3 0 -8 5 -11 10 -3 6 -1
10 4 10 6 0 11 -4 11 -10z m-750 -72 c0 -7 -4 -19 -9 -27 -7 -10 -9 -7 -8 12
2 26 17 39 17 15z m127 -54 c-3 -3 -12 -4 -19 -1 -8 3 -5 6 6 6 11 1 17 -2 13
-5z m-352 -82 c-3 -3 -11 0 -18 7 -9 10 -8 11 6 5 10 -3 15 -9 12 -12z m565 8
c0 -5 -5 -10 -11 -10 -5 0 -7 5 -4 10 3 6 8 10 11 10 2 0 4 -4 4 -10z m-457
-23 c4 3 7 -1 7 -10 0 -15 -3 -15 -20 -5 -11 7 -20 17 -20 22 0 4 6 3 13 -3 8
-6 17 -8 20 -4z m422 -5 c-3 -3 -11 0 -18 7 -9 10 -8 11 6 5 10 -3 15 -9 12
-12z m68 4 c4 -10 1 -13 -8 -9 -8 3 -12 9 -9 14 7 12 11 11 17 -5z m267 10 c0
-2 -8 -10 -17 -17 -16 -13 -17 -12 -4 4 13 16 21 21 21 13z m371 -53 c-12 -20
-14 -14 -5 12 4 9 9 14 11 11 3 -2 0 -13 -6 -23z m-33 0 c-10 -2 -26 -2 -35 0
-10 3 -2 5 17 5 19 0 27 -2 18 -5z m-738 -29 c0 -2 -11 -4 -25 -4 -14 0 -25 4
-25 9 0 4 11 6 25 3 14 -2 25 -6 25 -8z m904 -3 c4 -5 -3 -7 -14 -4 -23 6 -26
13 -6 13 8 0 17 -4 20 -9z m-210 -16 c3 -8 1 -15 -4 -15 -6 0 -10 7 -10 15 0
8 2 15 4 15 2 0 6 -7 10 -15z m-1134 -15 c0 -5 -5 -10 -11 -10 -5 0 -7 5 -4
10 3 6 8 10 11 10 2 0 4 -4 4 -10z m-102 -24 c-7 -8 -15 -12 -17 -11 -5 6 10
25 20 25 5 0 4 -6 -3 -14z m395 7 c-7 -2 -19 -2 -25 0 -7 3 -2 5 12 5 14 0 19
-2 13 -5z m-133 -17 c0 -3 -4 -8 -10 -11 -5 -3 -10 -1 -10 4 0 6 5 11 10 11 6
0 10 -2 10 -4z m1009 -28 c6 -18 7 -28 2 -23 -10 12 -25 55 -18 55 3 0 10 -15
16 -32z m-574 -48 c3 -5 1 -10 -4 -10 -6 0 -11 5 -11 10 0 6 2 10 4 10 3 0 8
-4 11 -10z m576 -18 c-7 -2 -18 1 -23 6 -8 8 -4 9 13 5 13 -4 18 -8 10 -11z
m-1301 -22 c0 -5 -5 -10 -11 -10 -5 0 -7 5 -4 10 3 6 8 10 11 10 2 0 4 -4 4
-10z m1317 -87 c-2 -16 -4 -3 -4 27 0 30 2 43 4 28 2 -16 2 -40 0 -55z m-717
57 c0 -5 -2 -10 -4 -10 -3 0 -8 5 -11 10 -3 6 -1 10 4 10 6 0 11 -4 11 -10z
m80 -10 c0 -5 -7 -7 -15 -4 -8 4 -15 8 -15 10 0 2 7 4 15 4 8 0 15 -4 15 -10z
m-860 -18 c0 -5 -7 -17 -15 -28 -14 -18 -14 -17 -4 9 12 27 19 34 19 19z m700
-12 c0 -5 -2 -10 -4 -10 -3 0 -8 5 -11 10 -3 6 -1 10 4 10 6 0 11 -4 11 -10z
m385 -20 c3 -6 -1 -7 -9 -4 -18 7 -21 14 -7 14 6 0 13 -4 16 -10z m-1152 -93
c-15 -26 -31 -47 -35 -47 -4 0 6 23 23 51 17 27 33 48 36 46 2 -3 -9 -25 -24
-50z m102 43 c3 -6 -1 -7 -9 -4 -18 7 -21 14 -7 14 6 0 13 -4 16 -10z m455
-39 c0 -4 -6 -8 -13 -8 -8 0 -14 6 -14 13 0 7 6 10 14 7 7 -3 13 -8 13 -12z
m725 9 c3 -5 1 -10 -4 -10 -6 0 -11 5 -11 10 0 6 2 10 4 10 3 0 8 -4 11 -10z
m-865 -10 c0 -5 -2 -10 -4 -10 -3 0 -8 5 -11 10 -3 6 -1 10 4 10 6 0 11 -4 11
-10z m208 -35 c-3 -3 -9 2 -12 12 -6 14 -5 15 5 6 7 -7 10 -15 7 -18z m892 12
c0 -2 -10 -12 -22 -23 l-23 -19 19 23 c18 21 26 27 26 19z m-1576 -65 c-9 -16
-29 -43 -44 -61 -18 -20 -26 -39 -23 -51 3 -11 0 -20 -6 -20 -6 0 -8 8 -4 18
4 9 -38 -28 -93 -82 -54 -54 -98 -103 -96 -108 1 -5 -2 -6 -8 -3 -7 4 -21 -1
-33 -12 -12 -10 -29 -23 -38 -28 -8 -6 1 4 20 20 82 69 236 225 284 288 54 71
69 85 41 39z m1200 13 c3 -8 1 -15 -4 -15 -6 0 -10 7 -10 15 0 8 2 15 4 15 2
0 6 -7 10 -15z m137 -8 c-10 -9 -11 -8 -5 6 3 10 9 15 12 12 3 -3 0 -11 -7
-18z m199 9 c0 -8 -81 -59 -86 -53 -3 3 4 8 15 12 24 7 27 20 9 29 -7 3 -4 4
7 1 11 -2 27 0 35 5 17 11 20 12 20 6z m-675 -26 c3 -5 2 -10 -4 -10 -5 0 -13
5 -16 10 -3 6 -2 10 4 10 5 0 13 -4 16 -10z m105 -10 c0 -5 -5 -10 -11 -10 -5
0 -7 5 -4 10 3 6 8 10 11 10 2 0 4 -4 4 -10z m220 6 c0 -2 -7 -7 -16 -10 -8
-3 -12 -2 -9 4 6 10 25 14 25 6z m-362 -31 c-3 -3 -9 2 -12 12 -6 14 -5 15 5
6 7 -7 10 -15 7 -18z m207 -27 c11 -10 -34 -2 -70 13 -13 6 -5 6 20 3 22 -4
45 -11 50 -16z m395 18 c0 -2 -7 -7 -16 -10 -8 -3 -12 -2 -9 4 6 10 25 14 25
6z m-588 -35 c2 -17 1 -28 -4 -25 -8 5 -12 54 -4 54 2 0 6 -13 8 -29z m543 19
c-3 -5 -11 -10 -16 -10 -6 0 -7 5 -4 10 3 6 11 10 16 10 6 0 7 -4 4 -10z
m-280 -28 c-3 -3 -11 0 -18 7 -9 10 -8 11 6 5 10 -3 15 -9 12 -12z m180 8 c4
-6 -20 -9 -67 -8 l-73 1 65 7 c36 4 66 7 67 8 1 1 5 -2 8 -8z m-1030 -10 c-3
-5 -12 -10 -18 -10 -7 0 -6 4 3 10 19 12 23 12 15 0z m595 -82 c0 -23 -3 -29
-9 -19 -8 12 -4 51 5 51 2 0 4 -15 4 -32z m-900 -28 c0 -5 -5 -10 -11 -10 -5
0 -7 5 -4 10 3 6 8 10 11 10 2 0 4 -4 4 -10z m214 2 c2 -4 -4 -8 -14 -8 -10 0
-16 4 -14 8 3 4 9 8 14 8 5 0 11 -4 14 -8z m316 4 c0 -3 -4 -8 -10 -11 -5 -3
-10 -1 -10 4 0 6 5 11 10 11 6 0 10 -2 10 -4z m135 -46 c-3 -5 -11 -10 -16
-10 -6 0 -7 5 -4 10 3 6 11 10 16 10 6 0 7 -4 4 -10z m-10 -40 c-3 -5 -11 -10
-16 -10 -6 0 -7 5 -4 10 3 6 11 10 16 10 6 0 7 -4 4 -10z m-820 -40 c-3 -5
-12 -10 -18 -10 -7 0 -6 4 3 10 19 12 23 12 15 0z m922 -16 c-3 -3 -12 -4 -19
-1 -8 3 -5 6 6 6 11 1 17 -2 13 -5z m-1077 -19 c0 -2 -10 -9 -22 -15 -22 -11
-22 -10 -4 4 21 17 26 19 26 11z m257 -1 c-3 -3 -12 -4 -19 -1 -8 3 -5 6 6 6
11 1 17 -2 13 -5z m343 -15 c0 -5 -4 -9 -8 -9 -5 0 -9 7 -9 15 0 8 4 12 9 9 4
-3 8 -9 8 -15z m590 -26 c-11 -17 -11 -17 -6 0 3 10 7 26 7 35 1 15 2 15 6 0
2 -10 -1 -25 -7 -35z m-978 15 c-7 -7 -12 -8 -12 -2 0 14 12 26 19 19 2 -3 -1
-11 -7 -17z m714 -15 c-6 -6 -36 9 -36 18 0 5 9 4 20 -3 10 -7 18 -14 16 -15z
m-993 -2 c-15 -12 -18 -22 -12 -28 7 -7 2 -9 -15 -6 -14 3 -26 7 -26 8 0 4 64
45 70 44 3 0 -5 -8 -17 -18z m22 -41 c3 -5 1 -10 -4 -10 -6 0 -11 5 -11 10 0
6 2 10 4 10 3 0 8 -4 11 -10z m58 -17 c-7 -2 -19 -2 -25 0 -7 3 -2 5 12 5 14
0 19 -2 13 -5z m107 -26 c0 -2 -10 -12 -22 -23 l-23 -19 19 23 c18 21 26 27
26 19z m1021 -30 c-10 -9 -11 -8 -5 6 3 10 9 15 12 12 3 -3 0 -11 -7 -18z
m-621 9 c0 -2 -7 -7 -16 -10 -8 -3 -12 -2 -9 4 6 10 25 14 25 6z m-275 -38 c6
-4 2 -8 -7 -8 -10 0 -18 7 -18 17 0 9 3 12 8 7 4 -5 12 -12 17 -16z m46 -15
c13 -16 12 -17 -3 -4 -10 7 -18 15 -18 17 0 8 8 3 21 -13z m16 -45 c-3 -8 -6
-5 -6 6 -1 11 2 17 5 13 3 -3 4 -12 1 -19z m468 12 c3 -5 1 -10 -4 -10 -6 0
-11 5 -11 10 0 6 2 10 4 10 3 0 8 -4 11 -10z m115 6 c0 -3 -4 -8 -10 -11 -5
-3 -10 -1 -10 4 0 6 5 11 10 11 6 0 10 -2 10 -4z m186 -24 c-17 -16 -18 -16
-5 5 7 12 15 20 18 17 3 -2 -3 -12 -13 -22z m-1095 -10 c-11 -16 -28 -35 -38
-43 -10 -8 -3 5 16 29 37 47 53 58 22 14z m694 -22 c-27 -27 -54 -50 -59 -50
-10 0 94 99 104 100 2 0 -18 -22 -45 -50z m115 -3 c0 -5 -4 -5 -10 -2 -5 3
-10 14 -10 23 0 15 2 15 10 2 5 -8 10 -19 10 -23z m220 -31 c0 -2 -8 -10 -17
-17 -16 -13 -17 -12 -4 4 13 16 21 21 21 13z m-690 -20 c0 -3 -4 -8 -10 -11
-5 -3 -10 -1 -10 4 0 6 5 11 10 11 6 0 10 -2 10 -4z m584 -11 c3 -8 1 -15 -4
-15 -6 0 -10 7 -10 15 0 8 2 15 4 15 2 0 6 -7 10 -15z m52 -3 c-10 -2 -22 0
-28 6 -6 6 0 7 19 4 21 -5 23 -7 9 -10z m-79 2 c-3 -3 -12 -4 -19 -1 -8 3 -5
6 6 6 11 1 17 -2 13 -5z m-352 -62 c-28 -24 -85 -62 -92 -62 -4 0 3 7 15 16
12 8 19 20 16 26 -4 7 -2 8 4 4 7 -4 22 0 34 8 23 17 39 22 23 8z m-245 -16
c0 -2 -7 -7 -16 -10 -8 -3 -12 -2 -9 4 6 10 25 14 25 6z m-234 -47 c3 -6 -5
-3 -20 6 -14 10 -26 19 -26 22 0 7 39 -17 46 -28z m263 27 c-20 -17 -49 -25
-55 -14 -4 6 -3 8 2 5 6 -3 16 -2 24 4 14 8 38 13 29 5z m21 -36 c0 -5 -2 -10
-4 -10 -3 0 -8 5 -11 10 -3 6 -1 10 4 10 6 0 11 -4 11 -10z m90 5 c0 -6 -56
-35 -67 -35 -4 1 8 9 27 20 39 22 40 22 40 15z m-123 -61 c-3 -3 -12 -4 -19
-1 -8 3 -5 6 6 6 11 1 17 -2 13 -5z m-338 -30 c9 -10 -53 6 -63 17 -6 5 4 5
24 -1 18 -5 35 -12 39 -16z m186 -4 c-3 -5 -12 -10 -18 -10 -7 0 -6 4 3 10 19
12 23 12 15 0z m-148 -6 c-3 -3 -12 -4 -19 -1 -8 3 -5 6 6 6 11 1 17 -2 13 -5z
m101 -1 c-10 -2 -26 -2 -35 0 -10 3 -2 5 17 5 19 0 27 -2 18 -5z m-1347 -389
c-39 -215 -54 -423 -55 -769 -1 -303 2 -364 18 -450 44 -235 159 -467 281
-566 l45 -37 -37 -53 c-146 -215 -333 -384 -668 -604 -273 -180 -453 -279
-687 -378 -429 -184 -845 -292 -1298 -339 -161 -16 -596 -16 -720 0 -199 27
-462 109 -628 197 -150 80 -323 232 -395 345 -67 107 -90 183 -95 305 -3 96
-1 120 21 187 27 85 87 181 174 279 54 61 186 189 194 189 2 0 4 -182 4 -404
0 -292 3 -408 12 -417 14 -14 17 -2 32 96 34 232 48 948 28 1420 l-7 180 25
-44 c14 -24 87 -134 162 -245 118 -172 156 -220 268 -331 194 -194 344 -287
553 -342 86 -23 118 -26 272 -27 206 -1 318 16 480 74 186 66 341 150 575 314
214 150 487 413 750 721 65 77 222 244 349 371 127 127 258 267 291 312 33 44
61 79 63 77 2 -1 -1 -29 -7 -61z m160 -414 c90 -27 217 -50 235 -43 31 12 10
-14 -32 -41 -90 -57 -189 -203 -213 -314 -45 -212 44 -308 284 -306 78 0 112
5 155 22 30 12 56 22 57 22 1 0 -20 -44 -47 -97 -44 -89 -80 -211 -80 -273 0
-25 4 -25 -56 4 -62 30 -189 72 -302 100 l-87 22 -12 55 c-20 90 -34 313 -28
458 12 326 22 424 40 417 7 -2 46 -14 86 -26z m44 -1020 c254 -70 486 -207
637 -376 87 -98 101 -122 100 -165 -5 -118 -135 -365 -300 -571 -162 -200
-477 -475 -765 -668 -311 -207 -695 -381 -1132 -514 -506 -153 -964 -226
-1420 -226 -489 0 -884 75 -1238 235 -438 199 -702 481 -801 855 -75 280 -44
559 86 776 71 120 253 320 383 422 109 86 328 202 383 202 19 0 22 -5 22 -41
0 -40 -5 -46 -159 -198 -158 -156 -212 -223 -268 -336 -56 -112 -67 -160 -67
-285 0 -103 3 -124 31 -202 79 -225 262 -419 516 -549 334 -171 653 -239 1052
-225 619 22 1131 137 1708 384 391 169 959 547 1192 794 187 199 270 347 233
418 -16 29 -122 86 -180 95 -42 7 -56 27 -105 144 -28 65 -27 64 -5 57 9 -2
53 -14 97 -26z m70 -255 c44 -26 58 -44 46 -63 -7 -12 -101 61 -101 79 0 14
10 11 55 -16z"/>
<path d="M3528 13373 c7 -3 16 -2 19 1 4 3 -2 6 -13 5 -11 0 -14 -3 -6 -6z"/>
<path d="M5270 13300 c0 -5 5 -10 11 -10 5 0 7 5 4 10 -3 6 -8 10 -11 10 -2 0
-4 -4 -4 -10z"/>
<path d="M3990 13280 c-16 -5 -19 -8 -8 -9 11 -1 15 -6 12 -15 -4 -11 -12 -13
-30 -6 -13 5 -24 7 -24 3 0 -18 67 -62 169 -110 64 -30 155 -74 204 -98 61
-31 87 -40 87 -30 0 16 -213 183 -252 197 -16 6 -28 14 -28 19 0 5 -6 9 -14 9
-8 0 -16 4 -18 9 -1 5 -14 11 -28 13 -14 1 -29 8 -35 14 -6 7 -20 8 -35 4z"/>
<path d="M3360 12740 c0 -5 5 -10 11 -10 5 0 7 5 4 10 -3 6 -8 10 -11 10 -2 0
-4 -4 -4 -10z"/>
<path d="M3016 12643 c-6 -14 -5 -15 5 -6 7 7 10 15 7 18 -3 3 -9 -2 -12 -12z"/>
<path d="M2987 12534 c-4 -4 -7 -14 -7 -23 0 -11 3 -12 11 -4 6 6 10 16 7 23
-2 6 -7 8 -11 4z"/>
<path d="M5701 12724 c0 -11 3 -14 6 -6 3 7 2 16 -1 19 -3 4 -6 -2 -5 -13z"/>
<path d="M5650 12710 c-20 -12 -10 -19 14 -10 11 3 15 9 10 13 -6 3 -16 2 -24
-3z"/>
<path d="M6568 12623 c7 -3 16 -2 19 1 4 3 -2 6 -13 5 -11 0 -14 -3 -6 -6z"/>
<path d="M4960 12581 c0 -6 4 -13 10 -16 6 -3 7 1 4 9 -7 18 -14 21 -14 7z"/>
<path d="M5282 12557 c-7 -8 -9 -17 -5 -20 3 -4 1 -7 -5 -7 -6 0 -9 -7 -5 -16
4 -12 9 -8 20 16 15 36 12 48 -5 27z"/>
<path d="M6085 12543 c-119 -26 -234 -104 -302 -205 -45 -67 -48 -72 -33 -63
10 6 12 0 8 -23 -3 -24 -1 -29 8 -22 6 6 18 8 27 4 10 -3 22 4 33 21 9 14 18
24 21 22 2 -2 23 13 46 35 96 88 229 149 314 142 57 -4 254 -64 247 -76 -3 -4
2 -5 10 -2 13 5 13 9 -2 32 -9 14 -12 23 -5 19 23 -14 25 15 2 31 -23 16 -37
16 -31 -1 1 -5 -2 -5 -8 -2 -6 4 -9 14 -6 22 3 8 1 11 -4 8 -5 -3 -20 1 -33 9
-65 43 -210 67 -292 49z"/>
<path d="M5376 12432 c-3 -5 1 -9 9 -9 8 0 12 4 9 9 -3 4 -7 8 -9 8 -2 0 -6
-4 -9 -8z"/>
<path d="M6516 12342 c5 -4 12 -11 15 -15 3 -5 9 -2 12 5 3 9 -3 14 -15 15
-11 1 -16 -1 -12 -5z"/>
<path d="M6470 12330 c-13 -8 -13 -10 2 -10 9 0 20 5 23 10 8 13 -5 13 -25 0z"/>
<path d="M6330 12301 c0 -6 4 -13 10 -16 6 -3 7 1 4 9 -7 18 -14 21 -14 7z"/>
<path d="M6484 12303 c3 -4 0 -13 -7 -22 -10 -14 -10 -14 5 -3 9 8 22 11 28 7
5 -3 10 -2 10 3 0 5 -9 12 -21 15 -12 3 -18 3 -15 0z"/>
<path d="M6545 12280 c-3 -5 -2 -10 4 -10 5 0 13 5 16 10 3 6 2 10 -4 10 -5 0
-13 -4 -16 -10z"/>
<path d="M5986 12072 c-3 -5 1 -9 9 -9 8 0 12 4 9 9 -3 4 -7 8 -9 8 -2 0 -6
-4 -9 -8z"/>
<path d="M6165 11910 c-3 -6 1 -7 9 -4 9 3 16 1 16 -6 0 -6 5 -8 11 -4 8 4 7
9 -2 15 -18 11 -26 11 -34 -1z"/>
<path d="M5935 11890 c-3 -5 1 -10 9 -10 9 0 16 5 16 10 0 6 -4 10 -9 10 -6 0
-13 -4 -16 -10z"/>
<path d="M6825 11842 c-37 -49 -84 -127 -85 -139 0 -7 -29 -42 -64 -78 -59
-59 -68 -65 -104 -63 -51 2 -69 -9 -45 -28 17 -12 16 -13 -10 -14 -16 0 -26 4
-22 10 3 6 1 10 -4 10 -6 0 -11 -9 -11 -19 0 -22 -26 -36 -34 -18 -3 7 -5 6
-5 -3 -1 -9 4 -21 11 -28 8 -8 8 -15 0 -25 -7 -8 -9 -17 -5 -20 3 -4 1 -7 -6
-7 -7 0 -9 -4 -6 -10 3 -5 0 -7 -8 -4 -8 3 -18 1 -22 -5 -3 -7 2 -11 14 -11
11 0 25 -8 31 -17 8 -15 9 -13 4 8 -3 15 -1 30 5 33 7 5 11 -2 12 -16 1 -23 1
-23 8 2 5 18 3 27 -8 32 -13 5 -13 7 -2 7 8 1 22 8 32 17 16 15 19 14 31 -5 7
-12 16 -21 21 -21 4 0 0 11 -8 24 -14 21 -14 24 0 29 9 4 15 1 15 -8 0 -8 5
-15 11 -15 5 0 7 -4 4 -10 -3 -5 3 -10 14 -10 12 0 21 -5 21 -12 0 -6 9 -3 20
7 14 13 23 15 32 7 9 -7 19 -6 33 5 19 15 19 15 -5 8 -22 -7 -23 -6 -12 8 7 8
22 13 35 10 18 -4 19 -3 7 6 -8 6 -10 11 -5 11 6 0 26 15 45 32 19 18 44 37
54 43 56 29 96 198 62 263 -22 42 -28 44 -51 14z m-265 -302 c0 -5 -7 -7 -15
-4 -8 4 -15 8 -15 10 0 2 7 4 15 4 8 0 15 -4 15 -10z m-15 -37 c-11 -3 -23
-10 -27 -17 -5 -7 -8 -7 -8 0 0 16 11 24 34 23 20 -1 20 -1 1 -6z m-50 -23 c3
-5 -1 -10 -10 -10 -9 0 -13 5 -10 10 3 6 8 10 10 10 2 0 7 -4 10 -10z"/>
<path d="M5890 11846 c0 -2 7 -7 16 -10 8 -3 12 -2 9 4 -6 10 -25 14 -25 6z"/>
<path d="M6117 11819 c7 -7 15 -10 18 -7 3 3 -2 9 -12 12 -14 6 -15 5 -6 -5z"/>
<path d="M7560 11710 c0 -5 5 -10 11 -10 5 0 7 5 4 10 -3 6 -8 10 -11 10 -2 0
-4 -4 -4 -10z"/>
<path d="M6870 11600 c0 -5 5 -10 11 -10 5 0 7 5 4 10 -3 6 -8 10 -11 10 -2 0
-4 -4 -4 -10z"/>
<path d="M6270 11560 c0 -5 5 -10 11 -10 5 0 7 5 4 10 -3 6 -8 10 -11 10 -2 0
-4 -4 -4 -10z"/>
<path d="M6318 11543 c7 -3 16 -2 19 1 4 3 -2 6 -13 5 -11 0 -14 -3 -6 -6z"/>
<path d="M6286 11525 c-9 -26 -7 -32 5 -12 6 10 9 21 6 23 -2 3 -7 -2 -11 -11z"/>
<path d="M6785 11510 c-16 -7 -17 -9 -3 -9 9 -1 20 4 23 9 7 11 7 11 -20 0z"/>
<path d="M6271 11464 c0 -11 3 -14 6 -6 3 7 2 16 -1 19 -3 4 -6 -2 -5 -13z"/>
<path d="M6430 11460 c-8 -6 -10 -10 -5 -10 6 0 3 -5 -5 -10 -8 -5 -10 -10 -4
-10 13 0 39 28 33 35 -3 2 -11 0 -19 -5z"/>
<path d="M6750 11449 c0 -5 5 -7 10 -4 6 3 10 8 10 11 0 2 -4 4 -10 4 -5 0
-10 -5 -10 -11z"/>
<path d="M6245 11430 c-3 -6 1 -7 9 -4 18 7 21 14 7 14 -6 0 -13 -4 -16 -10z"/>
<path d="M6637 11433 c-4 -3 2 -13 14 -21 11 -8 23 -11 26 -8 4 3 1 6 -5 6 -7
0 -12 7 -12 15 0 16 -12 20 -23 8z"/>
<path d="M6559 11414 c-1 -5 -1 -13 1 -19 1 -5 -4 -4 -11 3 -18 17 -34 15 -19
-3 7 -8 22 -15 34 -15 15 0 17 -3 8 -8 -7 -5 -10 -16 -6 -25 7 -21 24 -22 24
-3 0 8 7 16 15 20 8 3 15 1 15 -4 0 -6 5 -10 11 -10 8 0 8 5 -1 15 -7 8 -17
15 -23 15 -5 0 -18 10 -28 22 -11 11 -20 17 -20 12z"/>
<path d="M6680 11384 l-25 -15 25 7 c28 7 35 12 29 18 -2 2 -15 -2 -29 -10z"/>
<path d="M6400 11364 c-24 -13 -24 -14 -4 -14 12 0 24 7 28 15 3 8 4 15 3 14
-1 -1 -13 -7 -27 -15z"/>
<path d="M6506 11361 c-4 -5 3 -7 14 -4 23 6 26 13 6 13 -8 0 -17 -4 -20 -9z"/>
<path d="M6695 11350 c-3 -5 -1 -10 4 -10 6 0 11 5 11 10 0 6 -2 10 -4 10 -3
0 -8 -4 -11 -10z"/>
<path d="M6650 11339 c0 -6 -8 -9 -18 -7 -10 3 -27 -1 -37 -8 -22 -17 -13 -17
37 -4 39 11 60 30 34 30 -9 0 -16 -5 -16 -11z"/>
<path d="M6545 11330 c3 -5 8 -10 11 -10 2 0 4 5 4 10 0 6 -5 10 -11 10 -5 0
-7 -4 -4 -10z"/>
<path d="M5385 11319 c-4 -6 -13 -8 -20 -5 -17 6 -29 -24 -15 -38 8 -8 10 -7
6 4 -4 10 3 19 19 26 17 8 25 9 28 1 2 -6 6 -3 10 6 7 19 -17 24 -28 6z"/>
<path d="M5470 11310 c0 -13 11 -13 30 0 12 8 11 10 -7 10 -13 0 -23 -4 -23
-10z"/>
<path d="M5280 11278 c0 -11 12 -10 30 2 12 7 10 9 -8 7 -12 0 -22 -5 -22 -9z"/>
<path d="M6205 11280 c3 -5 8 -10 11 -10 2 0 4 5 4 10 0 6 -5 10 -11 10 -5 0
-7 -4 -4 -10z"/>
<path d="M6278 11203 c7 -3 16 -2 19 1 4 3 -2 6 -13 5 -11 0 -14 -3 -6 -6z"/>
<path d="M6440 11152 c6 -13 14 -21 18 -18 3 4 -2 14 -12 24 -18 16 -18 16 -6
-6z"/>
<path d="M6420 11130 c0 -5 5 -10 11 -10 5 0 7 5 4 10 -3 6 -8 10 -11 10 -2 0
-4 -4 -4 -10z"/>
<path d="M6447 11059 c7 -7 15 -10 18 -7 3 3 -2 9 -12 12 -14 6 -15 5 -6 -5z"/>
<path d="M6536 11035 c-11 -8 -15 -15 -9 -15 6 0 16 7 23 15 16 19 11 19 -14
0z"/>
<path d="M6648 10943 c7 -3 16 -2 19 1 4 3 -2 6 -13 5 -11 0 -14 -3 -6 -6z"/>
<path d="M6698 10932 c9 -10 19 -17 21 -16 6 5 -20 34 -30 34 -5 0 -1 -8 9
-18z"/>
<path d="M6565 10930 c-3 -5 -1 -10 4 -10 6 0 11 5 11 10 0 6 -2 10 -4 10 -3
0 -8 -4 -11 -10z"/>
<path d="M6634 10909 c-3 -6 -1 -16 4 -21 8 -8 11 -5 9 11 -1 24 -3 25 -13 10z"/>
<path d="M6690 10880 c0 -5 5 -10 11 -10 5 0 7 5 4 10 -3 6 -8 10 -11 10 -2 0
-4 -4 -4 -10z"/>
<path d="M6639 10823 c-13 -17 -13 -17 6 -3 11 8 22 16 24 17 2 2 0 3 -6 3 -6
0 -17 -8 -24 -17z"/>
<path d="M6680 10826 c0 -2 7 -7 16 -10 8 -3 12 -2 9 4 -6 10 -25 14 -25 6z"/>
<path d="M6818 10755 c-3 -14 -1 -25 3 -25 5 0 9 11 9 25 0 14 -2 25 -4 25 -2
0 -6 -11 -8 -25z"/>
<path d="M6540 10750 c0 -11 4 -20 9 -20 5 0 7 9 4 20 -3 11 -7 20 -9 20 -2 0
-4 -9 -4 -20z"/>
<path d="M6835 10713 c-30 -7 -41 -21 -22 -29 9 -3 14 -11 10 -17 -3 -6 -1 -7
5 -3 7 4 12 14 12 23 0 13 2 14 18 2 15 -12 16 -12 5 2 -7 9 -10 19 -6 22 3 4
4 6 2 6 -2 -1 -13 -3 -24 -6z"/>
<path d="M6340 10699 c0 -5 5 -7 10 -4 6 3 10 8 10 11 0 2 -4 4 -10 4 -5 0
-10 -5 -10 -11z"/>
<path d="M6880 10670 c0 -5 7 -7 15 -4 8 4 15 8 15 10 0 2 -7 4 -15 4 -8 0
-15 -4 -15 -10z"/>
<path d="M6496 10662 c-2 -4 -1 -14 3 -21 6 -9 11 -10 15 -2 4 6 2 11 -4 11
-6 0 -8 5 -5 10 3 6 4 10 1 10 -3 0 -7 -4 -10 -8z"/>
<path d="M6355 10640 c3 -5 8 -10 11 -10 2 0 4 5 4 10 0 6 -5 10 -11 10 -5 0
-7 -4 -4 -10z"/>
<path d="M6885 10620 c3 -5 8 -10 11 -10 2 0 4 5 4 10 0 6 -5 10 -11 10 -5 0
-7 -4 -4 -10z"/>
<path d="M6955 10621 c-3 -5 -1 -12 4 -16 6 -3 8 -13 5 -23 -5 -15 -4 -15 5
-2 7 8 17 24 23 35 9 16 8 18 -3 8 -16 -15 -33 -17 -24 -3 3 6 4 10 1 10 -3 0
-7 -4 -11 -9z"/>
<path d="M6398 10593 c7 -3 16 -2 19 1 4 3 -2 6 -13 5 -11 0 -14 -3 -6 -6z"/>
<path d="M6427 10580 c-7 -26 -4 -34 11 -29 4 2 5 15 2 29 l-6 25 -7 -25z"/>
<path d="M6988 10563 c6 -2 18 -2 25 0 6 3 1 5 -13 5 -14 0 -19 -2 -12 -5z"/>
<path d="M6978 10504 c-3 -3 -3 -14 -1 -25 5 -16 8 -18 14 -7 16 25 6 51 -13
32z"/>
<path d="M6969 10403 c-13 -16 -12 -17 4 -4 16 13 21 21 13 21 -2 0 -10 -8
-17 -17z"/>
<path d="M7010 10340 c0 -5 5 -10 11 -10 5 0 7 5 4 10 -3 6 -8 10 -11 10 -2 0
-4 -4 -4 -10z"/>
<path d="M7045 10340 c3 -5 8 -10 11 -10 2 0 4 5 4 10 0 6 -5 10 -11 10 -5 0
-7 -4 -4 -10z"/>
<path d="M6865 10180 c-3 -5 -1 -10 4 -10 6 0 11 5 11 10 0 6 -2 10 -4 10 -3
0 -8 -4 -11 -10z"/>
<path d="M6992 10175 c-11 -13 -10 -15 7 -15 14 0 19 5 15 15 -7 18 -6 18 -22
0z"/>
<path d="M6808 10163 c7 -3 16 -2 19 1 4 3 -2 6 -13 5 -11 0 -14 -3 -6 -6z"/>
<path d="M6860 10100 c0 -5 5 -10 11 -10 5 0 7 5 4 10 -3 6 -8 10 -11 10 -2 0
-4 -4 -4 -10z"/>
<path d="M6840 10009 c0 -5 5 -7 10 -4 6 3 10 8 10 11 0 2 -4 4 -10 4 -5 0
-10 -5 -10 -11z"/>
<path d="M3107 12343 c-4 -3 -7 -11 -7 -17 0 -6 5 -5 12 2 6 6 9 14 7 17 -3 3
-9 2 -12 -2z"/>
<path d="M2970 12159 c0 -5 5 -7 10 -4 6 3 10 8 10 11 0 2 -4 4 -10 4 -5 0
-10 -5 -10 -11z"/>
<path d="M2815 11980 c3 -5 8 -10 11 -10 2 0 4 5 4 10 0 6 -5 10 -11 10 -5 0
-7 -4 -4 -10z"/>
<path d="M2914 11897 c-51 -49 -95 -82 -104 -80 -13 4 -13 3 -1 -5 12 -8 8
-16 -19 -39 -18 -15 -43 -34 -54 -42 -12 -8 -23 -18 -26 -21 -29 -38 -274
-173 -334 -184 -35 -7 -186 -57 -186 -61 0 -3 7 -13 16 -23 16 -20 23 -19 134
4 14 2 49 9 79 14 112 19 235 94 400 240 79 70 169 193 181 247 5 18 7 33 6
33 -1 0 -42 -38 -92 -83z"/>
<path d="M2636 11852 c-3 -4 4 -9 15 -9 23 -2 25 3 4 10 -8 4 -16 3 -19 -1z"/>
<path d="M1580 11802 c4 -17 6 -33 4 -36 -2 -4 1 -2 8 4 8 6 17 5 27 -3 14
-11 14 -10 2 5 -7 10 -18 15 -24 11 -6 -4 -8 0 -4 10 3 8 0 21 -8 27 -12 10
-13 7 -5 -18z"/>
<path d="M2616 11757 c3 -10 9 -15 12 -12 3 3 0 11 -7 18 -10 9 -11 8 -5 -6z"/>
<path d="M2910 11710 c-9 -6 -10 -10 -3 -10 6 0 15 5 18 10 8 12 4 12 -15 0z"/>
<path d="M2400 11630 c0 -5 5 -10 11 -10 5 0 7 5 4 10 -3 6 -8 10 -11 10 -2 0
-4 -4 -4 -10z"/>
<path d="M2890 11570 c0 -5 5 -10 11 -10 5 0 7 5 4 10 -3 6 -8 10 -11 10 -2 0
-4 -4 -4 -10z"/>
<path d="M2590 11470 c0 -5 5 -10 10 -10 6 0 10 5 10 10 0 6 -4 10 -10 10 -5
0 -10 -4 -10 -10z"/>
<path d="M3000 11366 c0 -2 7 -7 16 -10 8 -3 12 -2 9 4 -6 10 -25 14 -25 6z"/>
<path d="M2936 11338 c3 -5 10 -6 15 -3 13 9 11 12 -6 12 -8 0 -12 -4 -9 -9z"/>
<path d="M3017 11303 c-4 -3 -7 -11 -7 -17 0 -6 5 -5 12 2 6 6 9 14 7 17 -3 3
-9 2 -12 -2z"/>
<path d="M1985 11000 c-3 -5 -1 -10 4 -10 6 0 11 5 11 10 0 6 -2 10 -4 10 -3
0 -8 -4 -11 -10z"/>
<path d="M1925 10970 c-3 -5 -1 -10 4 -10 6 0 11 5 11 10 0 6 -2 10 -4 10 -3
0 -8 -4 -11 -10z"/>
<path d="M1968 10963 c7 -3 16 -2 19 1 4 3 -2 6 -13 5 -11 0 -14 -3 -6 -6z"/>
<path d="M1921 10924 c0 -11 3 -14 6 -6 3 7 2 16 -1 19 -3 4 -6 -2 -5 -13z"/>
<path d="M2450 10926 c0 -2 7 -7 16 -10 8 -3 12 -2 9 4 -6 10 -25 14 -25 6z"/>
<path d="M1624 10908 c-4 -7 -15 -24 -23 -38 -15 -24 -15 -24 2 -11 15 12 17
12 11 -3 -8 -20 3 -21 22 -1 14 13 14 15 0 15 -9 0 -16 5 -16 10 0 6 5 10 11
10 5 0 8 4 5 9 -4 5 0 12 6 14 9 4 10 6 1 6 -6 1 -15 -5 -19 -11z"/>
<path d="M1660 10860 c0 -5 5 -10 11 -10 5 0 7 5 4 10 -3 6 -8 10 -11 10 -2 0
-4 -4 -4 -10z"/>
<path d="M2515 10810 c-3 -5 -1 -10 4 -10 6 0 11 5 11 10 0 6 -2 10 -4 10 -3
0 -8 -4 -11 -10z"/>
<path d="M1655 10800 c3 -5 11 -10 16 -10 6 0 7 5 4 10 -3 6 -11 10 -16 10 -6
0 -7 -4 -4 -10z"/>
<path d="M2445 10730 c-4 -6 3 -10 14 -10 25 0 27 6 6 13 -8 4 -17 2 -20 -3z"/>
<path d="M1859 10503 c-13 -16 -12 -17 4 -4 16 13 21 21 13 21 -2 0 -10 -8
-17 -17z"/>
<path d="M4038 12483 c7 -3 16 -2 19 1 4 3 -2 6 -13 5 -11 0 -14 -3 -6 -6z"/>
<path d="M3893 12463 c4 -3 2 -12 -4 -20 -7 -8 -8 -13 -1 -13 5 0 13 7 16 16
3 8 10 12 16 9 5 -3 10 -1 10 4 0 6 -10 11 -22 11 -12 0 -18 -3 -15 -7z"/>
<path d="M3838 12436 c-10 -7 -15 -16 -11 -19 3 -4 -6 -7 -20 -7 -32 0 -34
-10 -7 -35 11 -10 20 -13 20 -7 0 7 -6 12 -12 13 -7 0 0 6 16 14 18 7 30 21
31 34 1 11 1 21 1 21 -1 0 -9 -7 -18 -14z"/>
<path d="M4261 12294 c0 -11 3 -14 6 -6 3 7 2 16 -1 19 -3 4 -6 -2 -5 -13z"/>
<path d="M3820 11486 c0 -2 7 -7 16 -10 8 -3 12 -2 9 4 -6 10 -25 14 -25 6z"/>
<path d="M4155 10790 c-3 -5 -1 -10 4 -10 6 0 11 5 11 10 0 6 -2 10 -4 10 -3
0 -8 -4 -11 -10z"/>
<path d="M4600 11931 c0 -5 7 -12 16 -15 14 -5 15 -4 4 9 -14 17 -20 19 -20 6z"/>
<path d="M4549 11893 c-13 -16 -12 -17 4 -4 9 7 17 15 17 17 0 8 -8 3 -21 -13z"/>
<path d="M4645 11850 c-3 -5 -1 -10 4 -10 6 0 11 5 11 10 0 6 -2 10 -4 10 -3
0 -8 -4 -11 -10z"/>
<path d="M4508 11813 c7 -3 16 -2 19 1 4 3 -2 6 -13 5 -11 0 -14 -3 -6 -6z"/>
<path d="M4488 11793 c6 -2 18 -2 25 0 6 3 1 5 -13 5 -14 0 -19 -2 -12 -5z"/>
<path d="M4473 11768 c-6 -7 -13 -22 -17 -32 -5 -16 -4 -17 9 -6 9 7 13 15 10
18 -3 3 0 11 6 19 6 7 9 13 6 13 -2 0 -9 -6 -14 -12z"/>
<path d="M4440 11700 c0 -5 5 -10 10 -10 6 0 10 5 10 10 0 6 -4 10 -10 10 -5
0 -10 -4 -10 -10z"/>
<path d="M4550 11640 c18 -12 30 -13 30 -2 0 4 -10 9 -22 9 -18 2 -20 0 -8 -7z"/>
<path d="M4440 11629 c0 -5 5 -7 10 -4 6 3 10 8 10 11 0 2 -4 4 -10 4 -5 0
-10 -5 -10 -11z"/>
<path d="M4400 11549 c0 -5 5 -7 10 -4 6 3 10 8 10 11 0 2 -4 4 -10 4 -5 0
-10 -5 -10 -11z"/>
<path d="M4395 11510 c-3 -5 -1 -10 4 -10 6 0 11 5 11 10 0 6 -2 10 -4 10 -3
0 -8 -4 -11 -10z"/>
<path d="M4391 11474 c0 -11 3 -14 6 -6 3 7 2 16 -1 19 -3 4 -6 -2 -5 -13z"/>
<path d="M4466 11185 c4 -8 8 -15 10 -15 2 0 4 7 4 15 0 8 -4 15 -10 15 -5 0
-7 -7 -4 -15z"/>
<path d="M4530 11161 c0 -6 4 -13 10 -16 6 -3 7 1 4 9 -7 18 -14 21 -14 7z"/>
<path d="M4535 11080 c3 -5 8 -10 11 -10 2 0 4 5 4 10 0 6 -5 10 -11 10 -5 0
-7 -4 -4 -10z"/>
<path d="M3340 11450 c-13 -8 -12 -10 3 -10 9 0 17 5 17 10 0 12 -1 12 -20 0z"/>
<path d="M3305 11290 c-3 -5 -1 -10 4 -10 6 0 11 5 11 10 0 6 -2 10 -4 10 -3
0 -8 -4 -11 -10z"/>
<path d="M3241 11104 c0 -11 3 -14 6 -6 3 7 2 16 -1 19 -3 4 -6 -2 -5 -13z"/>
<path d="M3238 11073 c7 -3 16 -2 19 1 4 3 -2 6 -13 5 -11 0 -14 -3 -6 -6z"/>
<path d="M7167 11654 c4 -10 -1 -17 -16 -21 -22 -6 -27 -18 -11 -28 6 -3 10
-2 10 3 0 6 16 10 35 10 31 0 34 -2 23 -15 -10 -12 -9 -18 7 -29 27 -20 33
-18 33 11 0 14 -5 25 -10 25 -5 0 -6 10 -3 21 8 25 -8 39 -47 39 -21 0 -26 -4
-21 -16z m63 -15 c0 -5 -7 -9 -15 -9 -8 0 -15 7 -15 15 0 9 6 12 15 9 8 -4 15
-10 15 -15z m10 -43 c0 -3 -4 -8 -10 -11 -5 -3 -10 -1 -10 4 0 6 5 11 10 11 6
0 10 -2 10 -4z"/>
<path d="M7297 11608 c-10 -10 -23 -16 -28 -12 -7 4 -9 -1 -5 -14 5 -15 2 -22
-14 -27 -11 -3 -20 -11 -20 -16 0 -5 -11 -7 -25 -5 -25 5 -34 -7 -15 -19 6 -4
8 -10 5 -15 -3 -5 0 -12 6 -16 9 -5 10 0 7 14 -4 15 -2 22 8 22 8 0 14 -7 14
-15 0 -8 5 -15 11 -15 5 0 7 5 3 12 -5 7 -2 9 9 5 8 -3 18 0 20 7 4 9 -3 12
-21 9 -25 -4 -26 -3 -7 8 11 7 25 19 31 27 6 9 18 13 27 9 19 -7 44 18 27 28
-5 3 -10 1 -10 -4 0 -6 -7 -11 -17 -11 -14 0 -14 2 2 20 23 26 16 33 -8 8z"/>
<path d="M7165 11590 c3 -5 1 -10 -5 -10 -6 0 -8 -4 -5 -10 4 -6 11 -5 19 3
15 13 12 27 -5 27 -6 0 -7 -4 -4 -10z"/>
<path d="M7130 11564 c0 -14 4 -23 9 -20 5 3 7 15 4 26 -7 28 -13 25 -13 -6z"/>
<path d="M7185 11560 c-3 -5 -1 -10 4 -10 6 0 11 5 11 10 0 6 -2 10 -4 10 -3
0 -8 -4 -11 -10z"/>
<path d="M7326 11554 c-9 -24 -7 -27 9 -10 17 17 19 26 6 26 -5 0 -12 -7 -15
-16z"/>
<path d="M7287 11548 c4 -7 6 -21 4 -32 -1 -10 3 -22 11 -27 10 -7 11 -12 1
-29 -16 -24 -17 -40 -3 -40 5 0 12 11 16 25 3 14 12 25 20 25 16 0 19 16 4 25
-5 3 -10 1 -10 -6 0 -22 -22 7 -25 33 -4 37 -4 38 -16 38 -6 0 -7 -5 -2 -12z"/>
<path d="M7126 11482 c-2 -4 -1 -14 4 -22 7 -12 12 -12 22 -2 9 9 8 12 -6 12
-9 0 -14 5 -11 10 3 6 4 10 1 10 -3 0 -7 -4 -10 -8z"/>
<path d="M7270 11475 c7 -8 17 -15 22 -15 5 0 3 7 -6 15 -8 8 -18 15 -22 15
-3 0 -1 -7 6 -15z"/>
<path d="M7170 11470 c0 -5 4 -10 10 -10 5 0 7 -8 4 -17 -5 -15 -4 -16 5 -3 7
10 14 11 19 5 4 -6 21 -11 37 -12 24 -1 26 0 10 6 -11 5 -23 7 -26 5 -4 -2
-14 5 -24 16 -20 22 -35 26 -35 10z"/>
<path d="M7096 11455 c3 -7 12 -16 19 -19 9 -3 12 0 9 9 -3 7 -12 16 -19 19
-9 3 -12 0 -9 -9z"/>
<path d="M7238 11463 c7 -3 16 -2 19 1 4 3 -2 6 -13 5 -11 0 -14 -3 -6 -6z"/>
<path d="M7235 11350 c-4 -6 -11 -8 -16 -5 -5 4 -9 1 -9 -4 0 -6 10 -9 23 -7
12 3 29 5 37 5 13 1 13 2 0 11 -19 12 -27 12 -35 0z"/>
<path d="M7259 11318 c-11 -8 -10 -9 4 -4 13 4 20 0 24 -14 3 -11 9 -20 13
-20 12 0 0 38 -14 43 -7 3 -19 1 -27 -5z"/>
<path d="M7334 11298 c-4 -7 -4 -10 1 -6 4 4 15 2 24 -5 14 -11 14 -10 2 6
-16 20 -18 21 -27 5z"/>
<path d="M7081 11174 c0 -11 3 -14 6 -6 3 7 2 16 -1 19 -3 4 -6 -2 -5 -13z"/>
<path d="M7420 10329 c0 -5 5 -7 10 -4 6 3 10 8 10 11 0 2 -4 4 -10 4 -5 0
-10 -5 -10 -11z"/>
<path d="M7370 10196 c0 -2 7 -7 16 -10 8 -3 12 -2 9 4 -6 10 -25 14 -25 6z"/>
<path d="M7366 10137 c3 -10 9 -15 12 -12 3 3 0 11 -7 18 -10 9 -11 8 -5 -6z"/>
<path d="M7351 10094 c0 -11 3 -14 6 -6 3 7 2 16 -1 19 -3 4 -6 -2 -5 -13z"/>
<path d="M7345 10060 c3 -5 8 -10 11 -10 2 0 4 5 4 10 0 6 -5 10 -11 10 -5 0
-7 -4 -4 -10z"/>
<path d="M7335 10000 c3 -5 8 -10 11 -10 2 0 4 5 4 10 0 6 -5 10 -11 10 -5 0
-7 -4 -4 -10z"/>
<path d="M7300 9985 c-7 -9 -8 -15 -2 -15 5 0 12 7 16 15 3 8 4 15 2 15 -2 0
-9 -7 -16 -15z"/>
<path d="M7307 9946 c-6 -15 1 -26 14 -26 5 0 5 7 2 17 -7 18 6 13 42 -16 19
-15 19 -15 5 4 -28 37 -54 46 -63 21z"/>
<path d="M7317 9899 c7 -7 15 -10 18 -7 3 3 -2 9 -12 12 -14 6 -15 5 -6 -5z"/>
<path d="M8731 10774 c0 -11 3 -14 6 -6 3 7 2 16 -1 19 -3 4 -6 -2 -5 -13z"/>
<path d="M9350 9194 c0 -8 5 -12 10 -9 6 4 8 11 5 16 -9 14 -15 11 -15 -7z"/>
<path d="M9335 9100 c-10 -11 -14 -20 -9 -20 5 0 15 9 22 20 7 11 11 20 9 20
-2 0 -12 -9 -22 -20z"/>
<path d="M4191 9169 c-14 -39 -15 -139 -1 -139 9 0 34 72 46 136 5 30 4 34
-14 34 -14 0 -24 -10 -31 -31z"/>
<path d="M7410 9649 c0 -5 5 -7 10 -4 6 3 10 8 10 11 0 2 -4 4 -10 4 -5 0 -10
-5 -10 -11z"/>
<path d="M7420 9619 c0 -5 5 -7 10 -4 6 3 10 8 10 11 0 2 -4 4 -10 4 -5 0 -10
-5 -10 -11z"/>
<path d="M7456 9607 c3 -10 9 -15 12 -12 3 3 0 11 -7 18 -10 9 -11 8 -5 -6z"/>
<path d="M7527 9469 c7 -7 15 -10 18 -7 3 3 -2 9 -12 12 -14 6 -15 5 -6 -5z"/>
<path d="M7480 9460 c0 -5 5 -10 11 -10 5 0 7 5 4 10 -3 6 -8 10 -11 10 -2 0
-4 -4 -4 -10z"/>
<path d="M7566 9447 c3 -10 9 -15 12 -12 3 3 0 11 -7 18 -10 9 -11 8 -5 -6z"/>
<path d="M7500 9400 c0 -5 7 -7 15 -4 8 4 15 8 15 10 0 2 -7 4 -15 4 -8 0 -15
-4 -15 -10z"/>
<path d="M7580 9361 c0 -7 -4 -10 -8 -7 -4 2 -9 -5 -9 -16 -2 -21 -2 -21 14 1
8 12 12 25 9 28 -3 4 -6 1 -6 -6z"/>
<path d="M7551 9305 c0 -5 3 -16 8 -23 7 -11 9 -10 14 3 4 9 3 14 -2 10 -5 -3
-12 1 -14 7 -3 7 -6 9 -6 3z"/>
<path d="M7628 9253 c7 -3 16 -2 19 1 4 3 -2 6 -13 5 -11 0 -14 -3 -6 -6z"/>
<path d="M7715 9060 c-3 -5 -1 -10 4 -10 6 0 11 5 11 10 0 6 -2 10 -4 10 -3 0
-8 -4 -11 -10z"/>
<path d="M7666 9007 c3 -10 9 -15 12 -12 3 3 0 11 -7 18 -10 9 -11 8 -5 -6z"/>
<path d="M7710 8980 c-8 -5 -10 -10 -5 -10 6 0 17 5 25 10 8 5 11 10 5 10 -5
0 -17 -5 -25 -10z"/>
<path d="M7749 8813 c-1 -5 0 -16 1 -27 1 -13 -2 -16 -12 -10 -10 6 -10 5 1
-9 7 -9 11 -24 7 -32 -3 -8 -1 -15 4 -15 6 0 10 23 10 50 0 28 -2 50 -5 50 -3
0 -6 -3 -6 -7z"/>
<path d="M2905 9420 c-151 -17 -267 -61 -408 -153 -107 -70 -148 -106 -219
-196 -139 -174 -199 -370 -200 -651 -2 -198 25 -311 121 -511 47 -99 119 -189
227 -282 205 -178 421 -258 699 -260 179 -1 284 22 430 95 159 80 252 156 383
313 87 103 169 263 201 387 69 268 9 604 -144 805 -126 167 -331 319 -510 378
-181 60 -433 93 -580 75z m-335 -207 c-40 -65 -69 -175 -52 -196 11 -13 23
-10 90 28 98 55 171 79 318 106 108 19 131 20 259 10 268 -21 491 -95 709
-236 85 -54 86 -55 130 -147 67 -141 80 -205 80 -393 0 -156 -1 -162 -33 -250
-67 -181 -137 -292 -264 -417 -184 -182 -396 -275 -653 -285 -142 -6 -215 5
-364 55 -202 67 -372 198 -487 374 -23 36 -43 76 -43 88 0 12 20 114 45 227
63 284 83 408 95 590 5 87 15 209 22 271 l11 113 81 54 c44 30 82 55 83 55 1
0 -11 -21 -27 -47z m-258 -229 c-3 -18 -7 -22 -13 -13 -4 7 -3 19 3 26 15 18
16 17 10 -13z m-32 -34 c-6 -11 -13 -20 -16 -20 -2 0 0 9 6 20 6 11 13 20 16
20 2 0 0 -9 -6 -20z m-27 -69 c-4 -3 -14 -18 -20 -33 -11 -24 -10 -28 7 -33
11 -4 20 -10 20 -14 0 -4 7 -8 15 -8 9 0 15 10 15 24 0 14 -4 21 -10 18 -5 -3
-10 -4 -10 -1 0 2 -3 11 -6 20 -3 9 -1 16 6 16 6 0 8 -4 5 -10 -3 -5 -2 -10 4
-10 5 0 12 12 14 28 2 15 5 -10 6 -55 l1 -83 -45 32 c-25 18 -45 38 -45 45 0
7 10 33 23 59 15 31 23 41 25 29 2 -10 0 -20 -5 -24z m9 -228 c30 -61 31 -67
25 -151 -4 -48 -10 -104 -13 -125 l-7 -38 -28 49 c-15 27 -44 63 -64 81 -36
31 -37 33 -30 84 6 48 29 152 41 186 8 23 41 -15 76 -86z m-45 -372 c24 -54
24 -56 9 -117 -9 -35 -16 -75 -16 -91 0 -54 -17 -6 -44 122 -14 72 -26 153
-26 180 l0 50 26 -45 c15 -25 38 -69 51 -99z"/>
<path d="M3142 8905 c-127 -23 -265 -90 -292 -140 -7 -14 -11 -28 -8 -31 4 -3
36 12 71 34 217 130 498 133 765 6 76 -36 187 -132 233 -199 30 -43 43 -45 35
-4 -19 98 -189 235 -360 293 -139 47 -324 64 -444 41z"/>
<path d="M3115 8763 c-181 -25 -356 -114 -477 -241 -54 -57 -71 -90 -48 -93 6
-1 15 -2 21 -3 6 0 19 -24 29 -53 10 -28 33 -73 51 -100 46 -67 159 -177 231
-223 125 -81 330 -140 488 -140 142 0 333 49 370 96 14 16 13 17 -5 10 -128
-49 -192 -60 -330 -60 -171 0 -260 21 -414 95 -90 44 -115 62 -190 137 -75 76
-136 159 -156 213 -8 22 117 106 222 149 66 28 266 70 278 59 2 -3 -9 -41 -26
-84 -28 -73 -31 -88 -27 -170 5 -111 35 -181 104 -245 71 -66 144 -95 234 -93
186 2 328 126 347 303 3 33 9 60 12 60 14 -1 78 -94 97 -142 24 -57 36 -67 60
-47 42 35 -37 241 -135 350 -90 101 -238 179 -403 213 -72 15 -255 20 -333 9z
m352 -205 c46 -43 21 -122 -44 -134 -27 -5 -37 -1 -64 25 -25 26 -30 37 -24
59 16 67 86 94 132 50z"/>
<path d="M5925 8473 c-70 -10 -154 -37 -217 -70 -73 -38 -138 -101 -138 -133
0 -16 11 -11 65 30 83 63 138 87 255 112 321 70 663 -41 846 -274 41 -53 49
-59 52 -41 5 35 -32 94 -99 159 -157 149 -368 226 -616 223 -65 -1 -131 -4
-148 -6z"/>
<path d="M5982 8319 c-170 -20 -333 -93 -440 -197 -62 -60 -125 -152 -104
-152 4 0 35 23 67 51 91 76 201 127 308 141 48 6 90 9 92 6 3 -3 -6 -26 -20
-51 -79 -141 -56 -330 55 -451 125 -136 365 -142 506 -14 69 63 121 166 130
256 4 34 10 62 14 62 17 0 139 -122 178 -178 l42 -61 -62 -51 c-94 -77 -222
-136 -348 -161 -88 -18 -126 -21 -235 -16 -213 10 -357 52 -527 154 -49 30
-93 52 -96 49 -11 -11 62 -77 135 -122 336 -211 854 -184 1103 56 26 25 52 54
58 65 10 19 11 19 30 -4 30 -38 56 -22 49 29 -13 98 -106 242 -219 342 -169
148 -327 224 -518 248 -93 11 -94 11 -198 -1z m175 -211 c44 -41 18 -129 -41
-140 -39 -8 -82 16 -94 51 -29 83 72 149 135 89z"/>
<path d="M8280 7549 c-73 -14 -167 -67 -237 -132 -156 -146 -348 -421 -412
-589 -9 -25 -8 -28 10 -28 11 0 35 11 53 25 40 30 70 32 113 5 84 -51 90 -180
14 -298 -42 -65 -100 -107 -193 -138 -80 -26 -93 -42 -46 -55 91 -24 286 82
398 216 90 109 148 279 136 400 -9 87 -52 172 -115 225 -28 24 -51 49 -51 55
0 23 165 156 239 193 69 34 82 37 160 37 73 0 93 -4 129 -24 33 -20 45 -22 54
-13 22 22 -11 64 -72 94 -65 31 -118 40 -180 27z"/>
<path d="M5060 6878 c0 -9 4 -19 9 -22 15 -10 19 -55 11 -160 -11 -158 -54
-233 -174 -302 -85 -50 -108 -72 -96 -95 10 -17 14 -17 73 9 144 63 204 111
240 191 17 37 21 66 20 142 0 53 -6 113 -13 135 -15 46 -70 126 -70 102z"/>
<path d="M3833 6699 c-26 -26 -15 -66 25 -95 137 -101 188 -143 224 -186 71
-85 80 -51 17 69 -53 99 -91 146 -149 183 -55 36 -100 46 -117 29z"/>
<path d="M3815 6580 c3 -5 8 -10 11 -10 2 0 4 5 4 10 0 6 -5 10 -11 10 -5 0
-7 -4 -4 -10z"/>
<path d="M3845 6580 c-4 -6 1 -7 11 -3 12 4 15 2 12 -8 -3 -8 -12 -13 -20 -13
-12 1 -13 -3 -4 -22 10 -22 11 -22 14 -4 2 14 11 20 30 20 l27 0 -25 20 c-29
22 -36 24 -45 10z"/>
<path d="M4563 6532 c-54 -19 -120 -70 -141 -109 -7 -12 -17 -23 -23 -23 -6 0
-7 -4 -4 -10 4 -6 21 -2 45 10 101 51 264 62 360 24 38 -15 43 -16 58 0 15 15
15 18 -4 43 -53 71 -189 101 -291 65z"/>
<path d="M3922 6528 c2 -6 10 -14 16 -16 7 -2 10 2 6 12 -7 18 -28 22 -22 4z"/>
<path d="M3960 6501 c0 -7 -5 -9 -12 -5 -8 4 -10 3 -5 -2 8 -9 12 -10 40 -13
8 -1 7 -4 -3 -11 -13 -9 -13 -11 0 -20 8 -5 20 -10 27 -10 17 0 25 17 12 26
-8 5 -9 3 -4 -6 5 -8 3 -11 -6 -8 -8 3 -13 10 -12 16 1 5 -7 18 -17 27 -13 11
-20 14 -20 6z"/>
<path d="M4047 6423 c6 -16 5 -16 -10 -4 -10 8 -20 11 -24 7 -3 -3 -1 -6 5 -6
7 0 12 -7 12 -15 0 -9 7 -18 15 -21 8 -4 12 -11 8 -18 -4 -6 1 -5 10 3 9 7 17
19 17 25 0 6 -5 4 -10 -4 -9 -13 -10 -13 -11 0 -1 8 -1 20 0 27 1 6 -3 14 -9
18 -6 4 -7 -1 -3 -12z"/>
<path d="M4030 6286 c0 -2 7 -9 15 -16 9 -7 15 -8 15 -2 0 5 -7 12 -15 16 -8
3 -15 4 -15 2z"/>
<path d="M2975 6144 c-39 -20 -64 -44 -46 -44 7 0 20 9 29 20 19 23 82 32 89
13 3 -8 -4 -13 -16 -13 -12 0 -21 -4 -21 -10 0 -6 10 -6 27 1 20 7 28 7 34 -3
5 -8 4 -14 -4 -15 -6 -1 -33 -5 -59 -8 -41 -5 -48 -9 -48 -29 0 -30 137 -164
258 -250 29 -21 49 -43 45 -48 -3 -7 -1 -8 6 -4 6 4 43 -12 84 -39 215 -138
550 -261 858 -314 164 -28 445 -45 624 -37 179 9 195 10 355 41 166 32 278 71
418 146 78 42 132 64 165 68 28 3 52 12 54 18 3 7 -16 25 -41 41 -25 16 -44
31 -42 33 4 4 -29 8 -99 12 -39 2 -40 1 -41 -33 0 -34 -1 -35 -135 -102 -137
-70 -279 -122 -359 -131 -36 -5 -33 -3 18 9 34 9 60 19 58 22 -2 4 11 8 30 9
37 2 154 51 154 64 0 5 -26 6 -57 2 -32 -5 -128 -7 -213 -7 -155 2 -235 11
-580 69 -431 71 -489 82 -705 135 -218 52 -374 83 -391 76 -8 -3 -14 -2 -14 3
0 5 -21 12 -46 16 -26 3 -54 9 -63 12 -12 3 -11 1 3 -11 11 -9 28 -13 39 -10
14 4 17 1 15 -12 -2 -9 3 -19 11 -22 10 -3 12 0 8 12 -4 11 -3 15 4 11 6 -4 8
-14 5 -22 -4 -11 -2 -13 9 -9 8 3 25 2 37 -3 20 -7 20 -8 2 -15 -18 -7 -17
-10 11 -33 l30 -26 -30 18 c-75 45 -171 123 -235 193 -104 112 -121 141 -129
215 -2 13 -75 7 -106 -9z m95 -4 c0 -5 -2 -10 -4 -10 -3 0 -8 5 -11 10 -3 6
-1 10 4 10 6 0 11 -4 11 -10z m439 -329 c7 -5 9 -11 5 -14 -5 -3 -15 1 -22 9
-14 16 -5 18 17 5z m48 -23 c-3 -8 -6 -5 -6 6 -1 11 2 17 5 13 3 -3 4 -12 1
-19z m-82 -8 c-3 -4 1 -11 7 -13 8 -3 6 -6 -4 -6 -12 -1 -18 6 -18 20 0 11 5
17 10 14 6 -4 8 -10 5 -15z m61 11 c-3 -5 1 -14 9 -21 12 -10 16 -9 21 4 3 9
11 16 17 16 6 0 0 -11 -13 -25 -17 -18 -19 -25 -9 -26 8 0 6 -4 -6 -9 -31 -13
-32 -12 -29 28 3 45 3 42 10 42 3 0 3 -4 0 -9z m94 -7 c0 -2 -7 -4 -15 -4 -8
0 -15 4 -15 10 0 5 7 7 15 4 8 -4 15 -8 15 -10z m75 -15 c18 -8 18 -9 -5 -8
-51 2 -54 1 -39 -18 13 -15 12 -15 -7 -5 -23 12 -47 1 -57 -28 -4 -12 -6 -12
-6 2 -1 9 3 19 9 23 5 3 7 13 4 23 -4 12 -3 13 3 4 10 -13 43 -6 43 9 0 11 29
10 55 -2z m30 -28 c3 -5 -4 -12 -15 -16 -11 -3 -20 -11 -20 -16 0 -5 -6 -9
-12 -9 -7 1 -3 9 9 19 12 10 19 21 16 25 -4 3 -1 6 5 6 6 0 13 -4 17 -9z
m-192 -28 c6 8 7 6 3 -5 -6 -21 5 -23 22 -6 9 9 12 9 12 0 0 -7 -6 -12 -12
-12 -14 0 128 -70 142 -70 5 0 12 -4 15 -10 8 -13 -11 -6 -131 50 -56 26 -104
52 -108 58 -4 6 6 5 21 -3 21 -11 29 -12 36 -2z m215 -10 c-2 -9 -8 -18 -15
-20 -7 -3 -9 3 -6 16 6 25 26 28 21 4z m90 -11 c13 -20 13 -22 -2 -16 -9 3
-13 10 -10 15 3 5 -2 9 -10 9 -8 0 -18 5 -22 11 -13 22 29 4 44 -19z m82 19
c0 -5 10 -7 23 -4 19 4 20 3 4 -7 -13 -8 -22 -7 -39 4 -19 13 -19 16 -5 16 9
0 17 -4 17 -9z m-305 -11 c3 -5 1 -10 -4 -10 -6 0 -11 5 -11 10 0 6 2 10 4 10
3 0 8 -4 11 -10z m388 -7 c-7 -2 -19 -2 -25 0 -7 3 -2 5 12 5 14 0 19 -2 13
-5z m-203 -7 c0 -3 -4 -8 -10 -11 -5 -3 -10 -1 -10 4 0 6 5 11 10 11 6 0 10
-2 10 -4z m100 -6 c0 -5 -4 -10 -9 -10 -6 0 -13 5 -16 10 -3 6 1 10 9 10 9 0
16 -4 16 -10z m-200 -4 c0 -3 -4 -8 -10 -11 -5 -3 -10 -1 -10 4 0 6 5 11 10
11 6 0 10 -2 10 -4z m60 -6 c0 -5 -5 -10 -11 -10 -5 0 -7 5 -4 10 3 6 8 10 11
10 2 0 4 -4 4 -10z m175 0 c3 -5 2 -10 -4 -10 -5 0 -13 5 -16 10 -3 6 -2 10 4
10 5 0 13 -4 16 -10z m114 -21 c-24 -15 -30 -10 -11 9 9 10 19 14 21 9 2 -5
-3 -13 -10 -18z m76 21 c-3 -5 -12 -7 -20 -3 -21 7 -19 13 6 13 11 0 18 -4 14
-10z m25 -15 c0 -8 -4 -15 -10 -15 -5 0 -7 7 -4 15 4 8 8 15 10 15 2 0 4 -7 4
-15z m-240 -5 c0 -5 -2 -10 -4 -10 -3 0 -8 5 -11 10 -3 6 -1 10 4 10 6 0 11
-4 11 -10z m81 -7 c-25 -43 -28 -45 -33 -25 -4 15 -2 19 8 15 8 -3 14 1 14 11
0 9 5 16 10 16 7 0 7 -6 1 -17z m119 -20 c19 -20 29 -33 21 -29 -17 11 -33
-12 -25 -36 3 -10 1 -18 -4 -18 -11 0 -9 46 2 57 10 10 -14 32 -29 27 -10 -4
-12 0 -8 15 3 12 6 21 7 21 1 0 17 -17 36 -37z m-372 21 c12 -4 22 -12 22 -20
0 -10 -6 -11 -30 -3 -16 6 -30 15 -30 20 0 10 7 11 38 3z m558 -7 c4 -4 -4 -6
-19 -5 -14 1 -24 5 -21 9 5 9 31 6 40 -4z m94 -7 c21 -7 19 -8 -12 -6 -21 1
-41 6 -45 9 -9 9 26 7 57 -3z m-590 -9 c0 -6 -4 -12 -8 -15 -5 -3 -9 1 -9 9 0
8 4 15 9 15 4 0 8 -4 8 -9z m100 -7 c0 -2 -11 -4 -25 -4 -14 0 -25 4 -25 9 0
4 11 6 25 3 14 -2 25 -6 25 -8z m40 2 c0 -11 -19 -15 -25 -6 -3 5 1 10 9 10 9
0 16 -2 16 -4z m260 -6 c0 -5 -4 -10 -10 -10 -5 0 -10 5 -10 10 0 6 5 10 10
10 6 0 10 -4 10 -10z m59 -13 c0 -8 -2 -8 -6 1 -4 10 -8 10 -19 1 -9 -7 -14
-8 -14 -1 0 12 21 22 33 15 4 -2 7 -10 6 -16z m36 13 c3 -5 1 -10 -4 -10 -6 0
-11 5 -11 10 0 6 2 10 4 10 3 0 8 -4 11 -10z m182 4 c-3 -3 -12 -4 -19 -1 -8
3 -5 6 6 6 11 1 17 -2 13 -5z m-387 -14 c0 -5 -2 -10 -4 -10 -3 0 -8 5 -11 10
-3 6 -1 10 4 10 6 0 11 -4 11 -10z m287 -4 c-3 -7 0 -19 6 -25 8 -8 8 -11 0
-11 -6 0 -13 6 -16 13 -4 13 2 37 10 37 3 0 3 -6 0 -14z m160 8 c-3 -3 -12 -4
-19 -1 -8 3 -5 6 6 6 11 1 17 -2 13 -5z m-751 -14 c15 -6 24 -13 22 -16 -3 -3
-21 2 -39 10 -39 16 -24 21 17 6z m114 -11 c0 -6 -4 -7 -10 -4 -5 3 -10 11
-10 16 0 6 5 7 10 4 6 -3 10 -11 10 -16z m170 6 c11 -13 10 -14 -4 -9 -9 3
-16 1 -16 -6 0 -6 -4 -8 -10 -5 -6 4 -5 11 3 20 15 18 12 18 27 0z m578 0 c12
-12 -9 -17 -22 -6 -9 7 -24 10 -37 6 -15 -5 -19 -4 -14 5 7 11 61 7 73 -5z
m-670 -2 c-10 -2 -28 -2 -40 0 -13 2 -5 4 17 4 22 1 32 -1 23 -4z m34 -11 c-7
-2 -9 -9 -6 -14 4 -7 2 -8 -4 -4 -6 4 -9 13 -6 21 4 8 11 12 17 8 8 -5 7 -8
-1 -11z m398 8 c0 -5 -2 -10 -4 -10 -3 0 -8 5 -11 10 -3 6 -1 10 4 10 6 0 11
-4 11 -10z m41 -7 c-29 -15 -31 -18 -15 -24 11 -4 14 -8 7 -8 -6 -1 -18 2 -26
5 -14 5 -13 8 1 23 9 9 28 18 42 19 22 1 21 0 -9 -15z m-101 -23 c7 0 10 -3 7
-7 -9 -8 -57 17 -57 30 0 6 8 3 18 -6 10 -10 25 -17 32 -17z m260 22 c0 -5 -9
-17 -20 -27 -19 -17 -19 -17 -7 9 12 25 27 35 27 18z m-630 -17 c0 -8 -2 -15
-4 -15 -2 0 -6 7 -10 15 -3 8 -1 15 4 15 6 0 10 -7 10 -15z m510 -1 c0 -2 -7
-4 -15 -4 -8 0 -15 4 -15 10 0 5 7 7 15 4 8 -4 15 -8 15 -10z m233 -4 c4 0 5
5 2 10 -9 15 4 12 20 -4 12 -12 11 -14 -8 -18 -13 -3 -28 1 -35 8 -16 17 -16
32 0 16 7 -7 16 -12 21 -12z m-804 -6 c29 -8 60 -13 68 -10 8 3 11 2 8 -3 -3
-5 0 -11 7 -14 7 -2 2 -2 -12 0 -33 5 -148 41 -134 42 6 1 34 -6 63 -15z m711
6 c0 -5 -5 -10 -11 -10 -5 0 -7 5 -4 10 3 6 8 10 11 10 2 0 4 -4 4 -10z m160
-5 c-7 -9 -15 -13 -19 -10 -3 3 1 10 9 15 21 14 24 12 10 -5z m74 0 c-4 -8
-10 -15 -15 -15 -4 0 -6 7 -3 15 4 8 10 15 15 15 4 0 6 -7 3 -15z m-569 -13
c-3 -3 -11 0 -18 7 -9 10 -8 11 6 5 10 -3 15 -9 12 -12z m85 3 c0 -8 -9 -19
-20 -25 -16 -9 -18 -8 -14 5 3 8 10 12 15 9 5 -3 9 2 9 10 0 9 2 16 5 16 3 0
5 -7 5 -15z m172 3 c-9 -9 -15 -9 -24 0 -9 9 -7 12 12 12 19 0 21 -3 12 -12z
m268 -4 c0 -8 -5 -12 -10 -9 -6 4 -8 11 -5 16 9 14 15 11 15 -7z m103 9 c-7
-2 -21 -2 -30 0 -10 3 -4 5 12 5 17 0 24 -2 18 -5z m-258 -13 c-3 -5 0 -10 7
-10 8 0 14 -10 15 -22 0 -13 -1 -17 -4 -10 -3 6 -10 12 -18 12 -16 0 -37 25
-28 33 10 11 35 8 28 -3z m372 4 c-3 -3 -12 -4 -19 -1 -8 3 -5 6 6 6 11 1 17
-2 13 -5z m126 -1 c-7 -2 -21 -2 -30 0 -10 3 -4 5 12 5 17 0 24 -2 18 -5z
m-193 -14 c0 -8 -36 -19 -62 -19 -10 0 -18 4 -18 9 0 4 12 6 26 3 18 -3 25 -1
20 6 -4 7 2 10 14 9 11 -1 20 -4 20 -8z m-768 -21 c-7 -7 -12 -8 -12 -2 0 14
12 26 19 19 2 -3 -1 -11 -7 -17z m59 9 c-6 -8 -10 -16 -8 -18 1 -2 0 -3 -2 -1
-12 7 -7 32 6 32 12 0 13 -3 4 -13z m474 3 c3 -5 1 -10 -4 -10 -6 0 -11 5 -11
10 0 6 2 10 4 10 3 0 8 -4 11 -10z m55 0 c0 -5 -2 -10 -4 -10 -3 0 -8 5 -11
10 -3 6 -1 10 4 10 6 0 11 -4 11 -10z m-700 -10 l25 -8 -25 0 c-14 0 -34 3
-45 8 l-20 9 20 -1 c11 0 31 -4 45 -8z m87 3 c-4 -3 -2 -12 4 -20 9 -10 7 -13
-7 -12 -11 0 -28 5 -39 10 -17 8 -15 8 7 4 22 -4 26 -2 22 10 -4 8 -1 15 7 15
7 0 9 -3 6 -7z m685 -15 c-7 -7 -12 -8 -12 -2 0 14 12 26 19 19 2 -3 -1 -11
-7 -17z m-647 -8 c-3 -6 4 -10 17 -11 13 0 17 -3 10 -6 -18 -7 -44 5 -37 17 3
5 8 10 11 10 3 0 2 -4 -1 -10z m126 -26 c35 -3 66 -8 68 -10 2 -2 10 1 18 7 9
9 13 8 13 0 0 -6 7 -11 16 -11 14 0 15 2 3 18 -13 16 -12 16 6 1 26 -21 215
-34 235 -16 10 9 11 9 6 0 -5 -9 1 -13 18 -13 13 0 26 4 28 9 2 5 12 3 23 -6
18 -14 4 -15 -150 -9 -93 4 -192 10 -220 13 -85 10 -89 10 -117 12 -16 0 -28
6 -28 12 0 5 4 8 9 5 4 -3 37 -8 72 -12z m603 -15 c-3 -5 -35 -9 -71 -9 -37 0
-64 3 -60 6 3 3 31 6 62 5 33 0 53 4 50 9 -3 6 1 7 9 4 9 -3 13 -10 10 -15z
m71 11 c4 -6 -7 -10 -27 -9 -27 0 -30 2 -13 9 27 12 33 12 40 0z"/>
<path d="M4498 6143 c7 -3 16 -2 19 1 4 3 -2 6 -13 5 -11 0 -14 -3 -6 -6z"/>
<path d="M4433 6133 c9 -2 23 -2 30 0 6 3 -1 5 -18 5 -16 0 -22 -2 -12 -5z"/>
<path d="M2900 6051 c0 -25 6 -27 13 -6 4 8 2 17 -3 20 -6 4 -10 -3 -10 -14z"/>
<path d="M3400 5790 c0 -5 5 -10 11 -10 5 0 7 5 4 10 -3 6 -8 10 -11 10 -2 0
-4 -4 -4 -10z"/>
<path d="M5632 5778 c-19 -19 5 -43 26 -26 10 8 13 9 9 2 -7 -12 21 -29 31
-19 3 3 -1 5 -9 5 -8 0 -4 7 10 16 17 12 26 13 34 5 6 -6 20 -11 30 -11 12 0
17 -5 14 -13 -4 -10 2 -13 20 -9 18 3 25 0 30 -17 5 -21 23 -30 23 -12 0 14
-49 50 -89 67 -49 20 -114 27 -129 12z"/>
<path d="M5716 5735 c-3 -8 -1 -15 4 -15 6 0 10 7 10 15 0 8 -2 15 -4 15 -2 0
-6 -7 -10 -15z"/>
<path d="M5847 5673 c-2 -5 -1 -19 4 -33 7 -23 7 -23 8 8 1 31 -3 40 -12 25z"/>
<path d="M5832 5594 c-7 -8 -8 -14 -3 -14 10 0 25 19 20 25 -2 1 -10 -3 -17
-11z"/>
<path d="M3580 5273 c0 -3 9 -21 21 -39 72 -117 359 -262 582 -295 156 -23
505 12 575 57 33 21 29 47 -5 40 -194 -40 -476 -36 -669 9 -116 27 -318 113
-414 176 -50 32 -90 56 -90 52z"/>
<path d="M0 11838 l0 -528 83 -54 c109 -71 144 -88 260 -125 132 -42 266 -65
347 -58 153 13 273 78 323 177 27 52 28 60 24 155 -6 123 -43 234 -122 360
-114 181 -235 304 -426 431 -151 101 -291 154 -436 167 l-53 4 0 -529z"/>
</g>
</svg>
